<svg xmlns="http://www.w3.org/2000/svg" viewBox="0 0 680.31 547.09"><defs><style>.cls-1{fill:#fff;}.cls-2{opacity:0.5;}</style></defs><g id="Ebene_2" data-name="Ebene 2"><path class="cls-1" d="M349.2,107.87l1-15.19c.81,0,1.6.13,2.41.18l-1.11,17q-.69-.63-1.41-1.23ZM224.6,134.43l35.66,40.66q.44-1.31.93-2.61l-34.72-39.59ZM268,85.63c.67,12.85,3.29,25.31,6.13,37.75,2.75,12.07,1.76,24.27,1.46,36.42-.11,4.26-1.65,8.57-3.48,12.53-4.57,9.83-5.71,20.43-7.35,30.94-.16,1-.33,2.09-.5,3.13v8.71c.77,5.44,1.15,10.95,2.83,16.24,1.53,4.82,3.25,9.61,6.32,13.62a165.13,165.13,0,0,1,10.19,15.87H398.76c2.08-8.16,4.64-16.2,6.92-24.31,5.42-19.17,8.29-38.76,9.93-58.54.92-11.07,1.26-22.19,1.94-33.28.49-8,3.44-15.49,4.26-23.38,1.6-15.6,4.82-30.95,6.86-46.48.09-.67.3-1.32.45-2V64.75c-.41-1.69-.78-3.39-1.23-5.07-1.18-4.37-3.42-7.93-8.2-8.8-5.24-1-9.81.43-13.06,4.94a30.93,30.93,0,0,0-5.35,13.05c-.95,5.52-1.84,11.07-2.42,16.64a115.3,115.3,0,0,1-4.72,21.19c-2.95,9.85-4,20.09-6.34,30.07-.33,1.39-.74,2.77-1.1,4.13-1.33,0-1.29-1-1.47-1.65-3.23-10.8-17.34-17-28.06-12.71-.81.32-1.64.59-2.44.94-2.11.93-3.44.27-4.37-1.83a25.17,25.17,0,0,0-9-11.12c-6.81-4.58-20.85-6-28.66,3.3-.53.63-1,1.65-2,1.32s-1-1.36-1.17-2.18c-1.91-9.67-3.76-19.36-5.7-29-1.33-6.64-3-13.21-4.09-19.88-1.59-9.93-1.34-20.06-2.92-30-.49-3-.95-6.12-1.61-9.14-1.76-8-6.92-12.69-14.72-14.69H277c-5.28,1.51-8,5.27-9.59,10.32A58.56,58.56,0,0,0,265,49.8C266.45,61.71,267.36,73.67,268,85.63Zm-2.23,68.23c0-1,.06-1.94.09-2.9l-20.9-31.27c-.68.42-1.36.87-2,1.3l22.8,34.13C265.72,154.7,265.73,154.28,265.75,153.86Zm105.19-38,4-20c-.79-.15-1.59-.28-2.38-.42l-4,20.08C369.35,115.54,370.15,115.66,370.94,115.82ZM164.88,230.73l100.31,20c-.69-.94-1.32-1.89-1.91-2.85l-97.86-19.47C165.23,229.15,165.07,230,164.88,230.73Zm43.2-80.58,48.2,42.27c.15-.94.31-1.87.47-2.81l-47-41.22C209.2,149,208.63,149.55,208.08,150.15ZM388.92,84.48c.57-5.54,1.41-10.92,2.5-17.29.06-.39.15-.77.22-1.15A213.29,213.29,0,0,0,309,62c.16,1.51.34,3,.57,4.48.63,3.92,1.5,7.84,2.42,12,.19.85.38,1.72.57,2.59a193.06,193.06,0,0,1,76.22,4.22C388.85,85,388.89,84.75,388.92,84.48Zm-217.17,124,87,29.53c-.35-1-.67-1.94-1-2.89l-85.15-28.9C172.34,207,172,207.72,171.75,208.48Zm21.85-40.59,60.64,40.52v-2.9L195,165.92C194.53,166.57,194.07,167.24,193.6,167.89Zm-12.22,19.52,73.92,36.45c-.14-1-.26-1.93-.38-2.88l-72.37-35.69C182.16,186,181.76,186.7,181.38,187.41Zm127-133.85a221.48,221.48,0,0,1,85.74,4.36c.2-.48.42-.94.63-1.41.47-1.06,1-2.08,1.51-3A226.46,226.46,0,0,0,308,48.72c.09,1.23.18,2.46.26,3.68C308.28,52.79,308.31,53.17,308.34,53.56ZM424.51,192l47.72-41.85c-.55-.59-1.11-1.17-1.67-1.76l-45.65,40C424.78,189.63,424.65,190.81,424.51,192Zm-2.69,19.26,64.89-43.37c-.47-.65-.92-1.32-1.4-2l-63,42.08C422.16,209.08,422,210.19,421.82,211.26Zm5-47.52c-.07,1.31-.13,2.59-.21,3.91l29.13-33.22-1.86-1.54Zm134.43,97.1h4.84c-4.35-84.25-55-156.45-126.94-191.59V74l-.14.58C508.25,109.3,556.92,179.28,561.22,260.84Zm-27.87,0h19.39C548.5,183.52,502.8,117.06,437.56,83.35c-.64,4.27-1.34,8.52-2,12.67-.41,2.51-.82,5-1.23,7.59C490.32,134.93,529.27,193.25,533.35,260.84ZM418.66,227l80.28-39.59-1.18-2.12L419.34,224C419.12,225,418.89,226,418.66,227ZM160.89,253.83l111.2,7.28c-.51-.85-1-1.69-1.54-2.52L161.2,251.42C161.1,252.23,161,253,160.89,253.83ZM409.3,261l110.12-7.21c-.08-.81-.21-1.6-.31-2.41L410,258.58C409.74,259.4,409.51,260.22,409.3,261Zm26.07-141.35-3.77,5.64c-.32,2.11-.74,4.15-1.19,6.14l7-10.48C436.73,120.56,436.06,120.11,435.37,119.69ZM412,251.3l103.41-20.57c-.19-.78-.35-1.58-.55-2.36l-102.1,20.31C412.54,249.55,412.29,250.43,412,251.3Zm3.53-12.14c-.09.33-.19.66-.28,1l93.28-31.66c-.29-.76-.59-1.51-.89-2.26l-91.62,31.1C415.89,237.93,415.73,238.56,415.56,239.16ZM328.23,101h.32c.71,0,1.41,0,2.11.08l-.54-8.35c-.81,0-1.61.13-2.42.18Zm75.19,230.62h9.48l-4.79-30.74ZM613.81,321l19.83,50.12h-587L66.51,321,46.67,270.83h587Zm-495-30.12H90.89v60.95h10.54V325.23H115v-8.71h-13.6v-17h17.34Zm40.33,60.95c-1.06-2.26-1.16-4.44-1.16-7.4V333.67c0-6.88-1.72-11.4-7-12.89v-.17c4.7-1.74,6.9-5.75,6.9-12v-3.75c0-9.4-4.69-14-15.61-14H126.62v60.95h10.54V325.66h3.64c4.79,0,6.61,1.83,6.61,7.49v11.14c0,5,.38,5.93,1,7.49Zm37.09-60.95H167.46v60.95h28.73v-8.7H178V324.35h14.46v-8.7H178V299.54h18.19Zm18.67,0H204.33v60.95h10.53Zm38.88,0H223.86v8.71h18.58L222.9,343.25v8.53h30.84v-8.7H234.21l19.53-43.71Zm36.92,0H261.93v60.95h28.73v-8.7h-18.2V324.35h14.46v-8.7H272.46V299.54h18.2Zm18.67,0H298.8v60.95h10.53Zm40.37,0H317.14v8.71h11v52.24h10.54V299.54h11Zm39.1,0H356.24v8.71h11v52.24h10.53V299.54h11Zm37.8,60.95-10.92-60.95H401.4l-10.91,60.95h9.77l1.82-11.93h12.16l1.82,11.93Zm40.85-60.95h-9.39v36.49l-10.63-36.49h-13v60.95h9.38V307.29l13,44.49h10.63Zm44.18,60.95-12.74-38.57,12.55-22.38H500.71L487.49,317V290.83H477v60.95h10.53V332.63L491.8,325l8.81,26.82Zm36.54-60.95H519.43v60.95h28.74v-8.7H530V324.35h14.47v-8.7H530V299.54h18.2Zm41.18,0H580v36.49l-10.63-36.49h-13v60.95h9.39V307.29l13,44.49h10.63ZM142,299.54h-4.79V317H141c3.93,0,6.32-1.56,6.32-6.44v-4.7C147.31,301.45,145.68,299.54,142,299.54Zm-14.37-38.7H147c4.39-72.7,49.12-134.65,112-163.84-.45-3.58-.8-7.2-1-10.85-.17-3.36-.36-6.58-.57-9.68C184.44,107.36,132.13,177.85,127.58,260.84Zm-8.48,0c4.61-87.49,60.26-161.65,137.65-193.25-.14-1.71-.3-3.39-.46-5-79.86,32-137.39,108.26-142,198.29ZM432.2,448.65q-2-4.12-4.67-5.26t-6.13.55c-.31.15-.6.31-.86.46l-.72.45,7.31,14.95a24.33,24.33,0,0,0,2.86-1.17,14.59,14.59,0,0,0,4.49-3.1,17.2,17.2,0,0,0-.79-3.14A29.42,29.42,0,0,0,432.2,448.65ZM229.65,429.89q0,2.87-2.73,6.48a28.68,28.68,0,0,1-2.41,2.83,15.58,15.58,0,0,1-2.44,2.1,9,9,0,0,1-4.25-1.7,5.62,5.62,0,0,1-2.46-5q.13-3,3-6.81a29.18,29.18,0,0,1,2.61-3.09A7.52,7.52,0,0,1,223,423.1a12.06,12.06,0,0,1,4.09,2A5.7,5.7,0,0,1,229.65,429.89Zm215.48,2.33,6.6,5.25-4.48,2.72ZM394,458.06a13.17,13.17,0,0,1,.51,3.48,8.92,8.92,0,0,1-2.95,1.21,11.75,11.75,0,0,1-2.49.42l-1.89-7c.74-.28,1.48-.52,2.21-.72a4,4,0,0,1,3,.08A3.9,3.9,0,0,1,394,458.06Zm-57.51,7.07q1.59,2.39,1.41,6.89a29.85,29.85,0,0,1-.4,3.7,14.58,14.58,0,0,1-.82,3.11,8.92,8.92,0,0,1-4.47,1,5.6,5.6,0,0,1-4.84-2.72q-1.61-2.58-1.41-7.29a29.55,29.55,0,0,1,.41-4,7.38,7.38,0,0,1,.79-2.51,12.1,12.1,0,0,1,4.5-.67A5.73,5.73,0,0,1,336.48,465.13ZM209.93,410.54a3.93,3.93,0,0,1-1.41,2.66,13.27,13.27,0,0,1-2.75,2.19,8.92,8.92,0,0,1-2.53-1.94,11.37,11.37,0,0,1-1.62-1.94l5.12-5.16a21.54,21.54,0,0,1,1.73,1.54A4.12,4.12,0,0,1,209.93,410.54ZM141.5,380.67c38.41,70.33,113,118.17,198.66,118.17S500.41,451,538.81,380.67Zm243.29,26.67,4.94-10,4.93,10,11,1.6-8,7.78,1.88,11-9.86-5.19-9.87,5.18,1.89-11-8-7.79Zm-51.54,4,6.91-14,6.91,14,15.44,2.25-11.18,10.89L354,439.87l-13.81-7.27-13.82,7.26L329,424.48l-11.17-10.9ZM202.44,432.17l-1.14,1.09-5.25-5.2,3.38-11.93-1.24-1.28-3.2,3.22a3.37,3.37,0,0,0-.78,1,2,2,0,0,0,.09.92l.53,1.95-2.58,2.36-8.9-8.84,2.78-3.08,2.67,1.51,10.9-11a4.08,4.08,0,0,0,.87-1.11,1.57,1.57,0,0,0-.16-1l-.67-2.33,2.52-2.19a81.22,81.22,0,0,1,9,7.64,23.62,23.62,0,0,1,4.4,5.59,7.24,7.24,0,0,1,.86,4.69,8.61,8.61,0,0,1-2.57,4.34,7.55,7.55,0,0,1-4,2.21,8.16,8.16,0,0,1-4.67-.54Zm25.26,13.34a11.65,11.65,0,0,1-6.87,1.15,15.21,15.21,0,0,1-7-3.08q-5.4-4-6-8.74t3.54-10.28a17.22,17.22,0,0,1,6-5.26,11.92,11.92,0,0,1,6.85-1.24,14.37,14.37,0,0,1,7,3q10.86,8.12,2.58,19.2A17.22,17.22,0,0,1,227.7,445.51Zm25.86-3.06a13.43,13.43,0,0,0-3.2-2.34,15.93,15.93,0,0,0-2.85-1.23A12.61,12.61,0,0,0,245,441.3a22,22,0,0,0-2.35,3.47q-2.16,4-1.76,6.65t3.51,4.48a19.45,19.45,0,0,0,3.35,1.34,33.94,33.94,0,0,0,4.26,1.05l-1,4.52a18.85,18.85,0,0,1-5.55-.46,20.28,20.28,0,0,1-5.46-2q-5.42-3-6.53-7.86t2.18-11a16.84,16.84,0,0,1,5-5.88,11.26,11.26,0,0,1,6.42-2.05,14.8,14.8,0,0,1,7.15,2,25,25,0,0,1,7.56,6.57c-1.38,2-3,4.2-4.9,6.53l-2.81-1.3Zm33.87,10.87-12.19,6.06,4.84,15.5-.64,1.71-7.27-2.71-4.36-14.67-2,5.29a3.25,3.25,0,0,0-.29,1.19,1.63,1.63,0,0,0,.47.87l1.59,1.89-1.37,3.22-11.79-4.4,1.3-4.07,2.64.25,5.43-14.57a4.2,4.2,0,0,0,.36-1.36,1.43,1.43,0,0,0-.52-.86l-1.26-1.51,1.46-3.57L275.73,446,274.47,450l-3.1-.29-2.67,7.15,9.34-4.71a.59.59,0,0,0,.31-.36.58.58,0,0,0,0-.39l-.6-1.74,1.35-2.35,8.82,3.29Zm-6.71-25.61,1.89-11-8-7.79,11-1.6,4.94-10,4.93,10,11,1.6-8,7.78,1.88,11-9.86-5.19Zm26.75,49.43a1.6,1.6,0,0,0,.6.69l2.21,1.92-.73,3.17-13.62-2.45.5-4,3.61-.34.94-5.27-5.21-13-1.43-2.61.66-2.77,11.71,2.1-.28,3.87-2.73.25,2.92,7.87,4.53-5.25a1.14,1.14,0,0,0,.26-.53.68.68,0,0,0-.37-.73l-2.13-1.45.91-3.47L319.89,457l-.39,3.8-1.77.67-9.29,9.47-.88,5A3.36,3.36,0,0,0,307.47,477.14Zm38.2-5.78a17.1,17.1,0,0,1-2,7.76,11.61,11.61,0,0,1-5,4.83,15.14,15.14,0,0,1-7.55,1.44q-6.74-.27-9.9-3.82t-2.89-10.47a17.41,17.41,0,0,1,2-7.74,12,12,0,0,1,5-4.9,14.41,14.41,0,0,1,7.41-1.48Q346.24,457.54,345.67,471.36Zm28.72-2.15q.72,6.5-2.21,10.46t-9,4.63q-5.94.66-9-2.17c-2.08-1.87-3.36-5.05-3.86-9.51l-.88-7.95a4.3,4.3,0,0,0-.3-1.37,1.39,1.39,0,0,0-.85-.54l-1.38-.63-.32-4,12.58-1.4.65,4-3.25,1.3.92,8.27a15.11,15.11,0,0,0,1.94,6.48,4.3,4.3,0,0,0,4.43,2,6.11,6.11,0,0,0,1.84-.49,4.89,4.89,0,0,0,1.47-.94,8.52,8.52,0,0,0,.29-2.54c0-1.05-.11-2.45-.3-4.19l-.86-7.71a3.74,3.74,0,0,0-.31-1.37,1.57,1.57,0,0,0-.92-.54L363,460l-.21-3.69,12-1.33.69,4.34-2,.79Zm26.18,7.09L392,467.39l-1.74.43,1.18,4.39a3.34,3.34,0,0,0,.46,1.16,1.82,1.82,0,0,0,.84.38l1.94.53.75,3.41-12.11,3.25L382,477l2.65-1.56-4-14.93a3.67,3.67,0,0,0-.52-1.31,1.47,1.47,0,0,0-1-.39l-2.35-.59-.62-3.28a80.88,80.88,0,0,1,11.09-3.9,23.36,23.36,0,0,1,7.05-1,7.22,7.22,0,0,1,4.49,1.61,8.62,8.62,0,0,1,2.46,4.41,7.54,7.54,0,0,1-.11,4.59,8.25,8.25,0,0,1-2.82,3.76l9,8.43.37,1.54ZM440.21,454a12.26,12.26,0,0,1-3.81,6.67,35.06,35.06,0,0,1-8.46,5.47c-2.62,1.28-5.1,2.36-7.41,3.22l-1.9-3.41,2.31-2L414.14,450a3.8,3.8,0,0,0-.76-1.19,1.54,1.54,0,0,0-1-.19l-2.41-.13-1.27-3.13q3.66-2.16,6.16-3.58t4.08-2.2a25.52,25.52,0,0,1,8.65-2.78,9.16,9.16,0,0,1,6.25,1.51,15.21,15.21,0,0,1,4.66,6A15.5,15.5,0,0,1,440.21,454Zm19-5.77-2.48-3,2-2.21-3.36-2.68L448.53,445l.68,2.62a2.15,2.15,0,0,0,.24.58.58.58,0,0,0,.73.29l3-.59,1.66,3.19L446,457l-2.15-2.91.61-1.34-4.94-24.4L444.9,424l19,13.67c.62.44,1,.71,1.24.83a5.79,5.79,0,0,0,1,.4l1.13.37,1.4,2.53Zm13.69-10.11-2.76-2.87,2-3-3.52-4.05L455.17,424l-2.93-.52-1.74-2.25,9-7.8,2.83,2.65-1.51,2.28,7.95,2.66-1.24-6.82a1.17,1.17,0,0,0-.25-.54.7.7,0,0,0-.8-.17l-2.47.75-2.12-2.89,7.72-6.7,2.72,2.69-.59,1.8,1.55,13.17,3.3,3.8a3.32,3.32,0,0,0,.93.86,1.52,1.52,0,0,0,.91,0l2.88-.51,2,2.56Zm-1.66-36,3.18-4.36,1.3-1.4L489,410.62l-2.88,3.09Zm22.38,18.5-5.18-2.73,3-5.53L496.5,415Z"/></g></svg>