<svg id="Ebene_1" data-name="Ebene 1" xmlns="http://www.w3.org/2000/svg" viewBox="0 0 422.41 442.35"><defs><style>.cls-1{fill:#fff;}</style></defs><path class="cls-1" d="M121.27,138.44a1.81,1.81,0,0,1-1.6-.83,4.2,4.2,0,0,1-.56-2.36,5.36,5.36,0,0,1,.29-2.29,8.13,8.13,0,0,1,1.44-.16,1.87,1.87,0,0,1,1.62.76,3.81,3.81,0,0,1,.55,2.25,9.54,9.54,0,0,1-.09,1.32,5.06,5.06,0,0,1-.23,1.05,4,4,0,0,1-1.42.26m-.61,2.21a6.34,6.34,0,0,0,2.9-.64,4.87,4.87,0,0,0,2-1.77,4.71,4.71,0,0,0,.72-2.58,5.39,5.39,0,0,0-1.23-3.84,4.68,4.68,0,0,0-3.59-1.31,6.28,6.28,0,0,0-2.87.65,4.76,4.76,0,0,0-2.7,4.38,5.38,5.38,0,0,0,1.21,3.81,4.65,4.65,0,0,0,3.58,1.3M107,136.48a1.63,1.63,0,0,1-1.47-.7,4.06,4.06,0,0,1-.47-2.2,4.49,4.49,0,0,1,0-.62,4.11,4.11,0,0,1,1.06-.11,1.51,1.51,0,0,1,1.36.76,4.09,4.09,0,0,1,.48,2.16c0,.31,0,.52,0,.64a5.39,5.39,0,0,1-1,.07m-3.14,6.6,3.09-.2c.79-1.07,1.37-1.87,1.72-2.4a14.74,14.74,0,0,0,.88-1.43,13.18,13.18,0,0,0,1-2.33,6.85,6.85,0,0,0,.29-2,4.49,4.49,0,0,0-.53-2.21,3.68,3.68,0,0,0-1.49-1.46,4.72,4.72,0,0,0-2.24-.52,4.37,4.37,0,0,0-3.87,2.28,4.78,4.78,0,0,0-.59,2.36,3.29,3.29,0,0,0,.95,2.4,4.1,4.1,0,0,0,2.51,1.16l1.59-.36-3.5,4.05Zm-11-4.48c-1.36,0-2-.55-2-1.67a3.11,3.11,0,0,1,.13-.87,3.37,3.37,0,0,1,.35-.79l.32.14c.64.28,1.12.49,1.43.65a2.62,2.62,0,0,1,.74.54,1.08,1.08,0,0,1,.29.7,2.43,2.43,0,0,1-.34,1.21,6.41,6.41,0,0,1-.89.09m.53-5.57c-.61-.29-1.07-.52-1.36-.7a1.79,1.79,0,0,1-.6-.53,1.34,1.34,0,0,1-.16-.66,3.32,3.32,0,0,1,.07-.54,1.7,1.7,0,0,1,.16-.46l.54,0a2.1,2.1,0,0,1,1.32.35,1.3,1.3,0,0,1,.42,1.06,3.67,3.67,0,0,1-.39,1.52m-1,7.62a6.18,6.18,0,0,0,2.49-.46,3.83,3.83,0,0,0,1.66-1.3,3.32,3.32,0,0,0,.59-1.94,3.38,3.38,0,0,0-.4-1.73A3.27,3.27,0,0,0,95.5,134a3,3,0,0,0,.85-1.18,4.11,4.11,0,0,0,.29-1.55,2.92,2.92,0,0,0-1-2.38,4.54,4.54,0,0,0-2.91-.84,5.16,5.16,0,0,0-2.21.44A3.47,3.47,0,0,0,89,129.75a3.25,3.25,0,0,0-.53,1.83,3.45,3.45,0,0,0,.28,1.46,3.13,3.13,0,0,0,1,1.13A3.47,3.47,0,0,0,88,137.3a3,3,0,0,0,1.16,2.5,5.49,5.49,0,0,0,3.33.85m-16.63,2.19h3.32l4.29-10.4-.23-1.73H75.64l-.4,4,1.18.14,1.35-1.34,3-.07-5,8.66Zm-9.37-4.56a1.56,1.56,0,0,1-1.38-.75,3.87,3.87,0,0,1-.49-2.15c0-.32,0-.54,0-.66a5.7,5.7,0,0,1,1-.07,1.66,1.66,0,0,1,1.47.71,4.13,4.13,0,0,1,.47,2.21c0,.3,0,.49,0,.59a3.89,3.89,0,0,1-1,.12m-.5,2.37a4.32,4.32,0,0,0,2.27-.61,4.39,4.39,0,0,0,1.62-1.69,4.84,4.84,0,0,0,.58-2.37,3.32,3.32,0,0,0-.93-2.39A4,4,0,0,0,67,132.42l-1.59.36,3.49-4-.16-.71-3.06.21c-.87,1.16-1.47,2-1.8,2.47A15.79,15.79,0,0,0,62,134.42a6.78,6.78,0,0,0-.28,2,4.59,4.59,0,0,0,.52,2.23,3.58,3.58,0,0,0,1.48,1.48,4.72,4.72,0,0,0,2.24.51M51.6,143.08a5.52,5.52,0,0,0,2.67-.64,4.83,4.83,0,0,0,1.88-1.73,4.57,4.57,0,0,0,.69-2.46,2.67,2.67,0,0,0-1.29-2.48,3.69,3.69,0,0,0-1.38-.49,17.83,17.83,0,0,0-2-.2l-.52,0v-1.5h4.25c.16-1.17.29-2.25.37-3.22l-1.39-.38-.34.43a.92.92,0,0,1-.34.3,2,2,0,0,1-.53,0h-4a11.57,11.57,0,0,0-.28,1.3,6.39,6.39,0,0,0-.09,1.18l.39,4.61,1,.06,2.06.14a1.83,1.83,0,0,1,1.3.59,2.12,2.12,0,0,1,.4,1.44,2.22,2.22,0,0,1-1.5.41,5.15,5.15,0,0,1-2.4-.5h-.72l-.94,2.42a4.56,4.56,0,0,0,2.69.72M37.31,137l2.41-3.79V137Zm2.41,5.86h.85l2.16-.32-.07-2.85h1.19l.45-2V137H42.6l-.14-6.2-3.26-.35-4.79,7.35.46,1.89h4.85Zm-15.22.24a6,6,0,0,0,2.77-.65,4.91,4.91,0,0,0,2-1.76,4.52,4.52,0,0,0,.72-2.49,2.84,2.84,0,0,0-.46-1.71,2.65,2.65,0,0,0-1.46-.91,6.29,6.29,0,0,0,.87-1.34A3,3,0,0,0,29.2,133a2.08,2.08,0,0,0-1-1.79,4.56,4.56,0,0,0-2.59-.67,9.3,9.3,0,0,0-2.71.4l-.35,1.71,0,.82a9.87,9.87,0,0,1,2.21-.27,2.38,2.38,0,0,1,1.22.23,1,1,0,0,1,.37.82,4.93,4.93,0,0,1-.17,1,2.82,2.82,0,0,1-.65.19c-.27,0-.8.12-1.61.22a12.79,12.79,0,0,0-.37,2.12l1,.07,1.19.1a2.09,2.09,0,0,1,1.39.58,2,2,0,0,1,.43,1.46,2.31,2.31,0,0,1-1.57.39,5.43,5.43,0,0,1-2.38-.48h-.79l-1,2.49a4.6,4.6,0,0,0,1.25.51,6.31,6.31,0,0,0,1.51.19M11.05,140.3h6.61l.19-2.8h-.73l-3,.68.75-.56a10.23,10.23,0,0,0,2.17-2.17,4,4,0,0,0,.66-2.26,2.32,2.32,0,0,0-.95-2,4.2,4.2,0,0,0-2.58-.72,11.3,11.3,0,0,0-2.71.34l-.21,1.8.09.7a15.91,15.91,0,0,1,2.21-.18,1.7,1.7,0,0,1,1.09.28,1.13,1.13,0,0,1,.35.91,3.33,3.33,0,0,1-.09.75c-.28.25-1,.8-2.1,1.66l-1,.74c-.39.3-.69.54-.88.7Zm-10.6,0H6.84l.06-1.36-1.27-.64a.56.56,0,0,1-.29-.23,1.67,1.67,0,0,1,0-.52v-7l-1.46-.12-3.31,1-.16,1.17,1.46.81a1.33,1.33,0,0,1,.4.29,1,1,0,0,1,.06.45v4l-1.92.36Z"/><path class="cls-1" d="M336,113.57h7.82c.16-1.24.28-2.3.34-3.21l-1.23-.25-1.05,1.25-2.25.16,4.28-5.17-.25-2.1h-7.18c-.1.77-.19,1.85-.29,3.23l1.2.19.9-1.21,2.16-.16-4.61,5.43Zm-10.66,4.08a28.79,28.79,0,0,0,1.62-2.76c.54-1,1.21-2.43,2-4.22l2.28-5-.16-1.44h-3.38l-.16,1.41.84.36a.2.2,0,0,1,.14.21.45.45,0,0,1,0,.16l-1.64,4.1L325.45,106l1-.25-.18-1.52h-4.56l-.09,1,.3.4a2.32,2.32,0,0,1,.27.39c0,.09.13.3.26.62l2.59,6.81-2,1.94a9.34,9.34,0,0,0,2.28,2.21m-16.69-4.08h3.6l.08-1.19-.6-.31a.18.18,0,0,1-.11-.17.35.35,0,0,1,.07-.2l1-1.34,1.3,1.7-.87.21.09,1.3h4.92l.08-.94c-.09-.1-.27-.31-.53-.65l-2.39-3.1,2.75-3.27-.09-1.36h-3.5l-.08,1.2.6.3a.18.18,0,0,1,.11.18.34.34,0,0,1-.07.19l-.88,1.25-1.23-1.59.72-.16-.09-1.37h-4.78l-.09,1a1.48,1.48,0,0,1,.2.17,4.39,4.39,0,0,1,.32.36l2.35,3.07-2.94,3.38Zm-15.88.29,2.57-.2L297,108.9l1.48,5,2.56-.2,3.07-8-.18-1.39h-3.39l-.17,1.41.85.36a.2.2,0,0,1,.16.21.69.69,0,0,1,0,.16l-1.15,4.1-2-6.35-1.83.25-1.77,5.94L293.36,106l1-.23-.18-1.52h-4.5l-.09,1,.3.4a2.32,2.32,0,0,1,.27.39c.05.09.13.3.27.62Zm-12.94-.06,2.57-.19,3.53-7.92-.18-1.44h-3.38l-.17,1.41.84.36a.2.2,0,0,1,.16.21.69.69,0,0,1,0,.16l-1.57,4.22L280,106l1-.25-.18-1.52h-4.49l-.09,1,.31.4a1.72,1.72,0,0,1,.26.39c.05.09.14.3.27.62Zm-13.89,0a5,5,0,0,0,1.47-.26,7.84,7.84,0,0,0,1.54-.68H269a1.38,1.38,0,0,1,.09.33c.06.22.11.4.16.54.57,0,1.19-.09,1.86-.19s1.25-.22,1.76-.35l0-1.1-.71-.41a.66.66,0,0,1-.25-.25A1.44,1.44,0,0,1,272,111v-5.84a4.47,4.47,0,0,0-.31-1,9.25,9.25,0,0,0-1.48.16l-2.26.41-.07,1.33.79.43c.15.1.25.18.28.26a1.44,1.44,0,0,1,.05.51v3.88a4.64,4.64,0,0,1-1.65.3,1.45,1.45,0,0,1-.83-.17.67.67,0,0,1-.29-.49,9.37,9.37,0,0,1,0-1.1v-4.49a4.49,4.49,0,0,0-.3-1,14,14,0,0,0-2,.25l-1.4.25-.35.07L262,106l.8.43a.86.86,0,0,1,.31.26,1.37,1.37,0,0,1,.06.51v3.19a3.9,3.9,0,0,0,.7,2.55,2.56,2.56,0,0,0,2.12.85m-10.8,0a6.26,6.26,0,0,0,1.52-.19,8.66,8.66,0,0,0,1.44-.5l-.22-1.82a11.07,11.07,0,0,1-1.63.16,1.2,1.2,0,0,1-.94-.29,1.88,1.88,0,0,1-.24-1.14v-3.67h3v-2.1h-3v-2l-1-.13L250.87,105v1.3h1.25v4.33a3.34,3.34,0,0,0,.74,2.36,3.13,3.13,0,0,0,2.32.77m-12.08.07a5,5,0,0,0,3.07-.82,2.64,2.64,0,0,0,1.12-2.28,2.06,2.06,0,0,0-.24-1,2.68,2.68,0,0,0-.84-.85,13.7,13.7,0,0,0-1.77-1q-.81-.41-1.17-.63a2,2,0,0,1-.51-.41.71.71,0,0,1-.14-.43.9.9,0,0,1,0-.34l.57,0a5.13,5.13,0,0,1,1.36.14l1.19,1.29.93-.15a25.06,25.06,0,0,0,.16-2.58,8.46,8.46,0,0,0-3.07-.62,4.54,4.54,0,0,0-2.87.83,2.74,2.74,0,0,0-1.06,2.27,2.38,2.38,0,0,0,.24,1.1,2.81,2.81,0,0,0,.79.9,11,11,0,0,0,1.6,1c.56.27,1,.48,1.18.61a1.68,1.68,0,0,1,.44.33.69.69,0,0,1,.09.36,1,1,0,0,1-.05.39,2.66,2.66,0,0,1-.64.06,4.48,4.48,0,0,1-1.32-.18l-1.12-1.2-1,.2c-.08.56-.16,1.42-.23,2.58a12.45,12.45,0,0,0,3.26.5m-14.45-.3H234l.07-1.27-1.07-.57a.69.69,0,0,1-.29-.26,1.75,1.75,0,0,1-.05-.5v-4a13.82,13.82,0,0,1,1.55-.09l.94,0a9.15,9.15,0,0,0,.18-1.27q.07-.8.09-1.47h-1a8.71,8.71,0,0,0-1.82,1.15c-.1-.46-.2-.84-.3-1.15a20.16,20.16,0,0,0-3.19.48,3,3,0,0,0-.52.09l-.05,1.33.78.43c.15.1.25.18.28.26a1.37,1.37,0,0,1,.06.51v4.33l-1.09.32Zm-9.57-2a1.33,1.33,0,0,1-1.21-.74,4.39,4.39,0,0,1-.43-2.14,8.52,8.52,0,0,1,.09-1.29,4.1,4.1,0,0,1,.23-.91,3.72,3.72,0,0,1,1.2-.17,3.67,3.67,0,0,1,1.46.26v4.64a5,5,0,0,1-.74.27,2.06,2.06,0,0,1-.6.08m-.14,5.81h5.35l.07-1.51-.56-.32a.75.75,0,0,1-.32-.25,1.87,1.87,0,0,1,0-.52v-10a8.14,8.14,0,0,0-1.78-.55,9.83,9.83,0,0,0-2.09-.22,5.27,5.27,0,0,0-3.81,1.28,4.87,4.87,0,0,0-1.32,3.68,5.36,5.36,0,0,0,1,3.54,3.81,3.81,0,0,0,3.11,1.23,7.13,7.13,0,0,0,1.87-.28v1.89l-1.55.41Zm-13.47-5.75a3.45,3.45,0,0,1-1.3-.22v-4.84a3,3,0,0,1,1.21-.31,1.47,1.47,0,0,1,1.31.75,4,4,0,0,1,.47,2.12,7.34,7.34,0,0,1-.1,1.19,5.91,5.91,0,0,1-.24,1.07,3.2,3.2,0,0,1-1.35.24m-5.31,5.75h5.35l.07-1.25-1.05-.58a.7.7,0,0,1-.31-.25,1.87,1.87,0,0,1-.05-.52v-1l.84,0a5.27,5.27,0,0,0,3.81-1.28,4.87,4.87,0,0,0,1.32-3.68,5.79,5.79,0,0,0-1-3.57,3.2,3.2,0,0,0-2.73-1.26,3.78,3.78,0,0,0-1.26.23A4.25,4.25,0,0,0,204,105a3,3,0,0,0-.22-.85,15,15,0,0,0-1.54.18c-.62.1-1.21.21-1.77.32l-.2,0-.17,0L200,106l.8.43c.17.1.27.18.3.26a1.37,1.37,0,0,1,.06.51v8.18l-1.11.3Zm-8.53-5.68a1.48,1.48,0,0,1-1.35-.8,4.67,4.67,0,0,1-.47-2.3,11.26,11.26,0,0,1,.07-1.37,2.94,2.94,0,0,1,.2-.86,4.48,4.48,0,0,1,1.19-.16,1.47,1.47,0,0,1,1.34.75,4.2,4.2,0,0,1,.46,2.19c0,.39,0,.8-.07,1.23a8,8,0,0,1-.18,1,3,3,0,0,1-.57.2,2.35,2.35,0,0,1-.62.07m-.29,2.08a4.62,4.62,0,0,0,3.52-1.31,5,5,0,0,0,1.26-3.64q0-4.78-4.62-4.78a4.93,4.93,0,0,0-2.48.61,4,4,0,0,0-1.61,1.75,6,6,0,0,0-.56,2.67,4.94,4.94,0,0,0,1.11,3.54,4.47,4.47,0,0,0,3.38,1.16m-19.63-.25h5.16l.08-1.33-.88-.5a.72.72,0,0,1-.28-.27,1.34,1.34,0,0,1-.06-.5v-4.31a8.81,8.81,0,0,1,1.62-.2,1.47,1.47,0,0,1,.85.18.79.79,0,0,1,.3.5,9,9,0,0,1,.05,1.12v3.37l-.87.25.08,1.69h4.92l.07-1.33-.85-.5a.67.67,0,0,1-.3-.27,1.34,1.34,0,0,1-.06-.5v-3.49q0-3.39-2.83-3.39a5.1,5.1,0,0,0-1.29.19,11.13,11.13,0,0,0-1.78.69,4.65,4.65,0,0,0-.23-.82,23.1,23.1,0,0,0-3.36.5l-.4.07L171.6,106l.78.43a.76.76,0,0,1,.29.26,1.73,1.73,0,0,1,.05.51v4.31l-1.1.32Zm-20.85,0H156l.07-1.34-.87-.5a.76.76,0,0,1-.29-.26,1.75,1.75,0,0,1-.05-.5v-4.35a8.54,8.54,0,0,1,1.52-.16,1.44,1.44,0,0,1,.82.18.74.74,0,0,1,.29.51,9.68,9.68,0,0,1,0,1.11v3.37l-.85.25.09,1.69h4.88l.07-1.34-.87-.5a.64.64,0,0,1-.32-.26,1.37,1.37,0,0,1-.06-.5v-3.51q0-.55,0-.84a11.55,11.55,0,0,1,1.55-.16,1.41,1.41,0,0,1,.84.19.74.74,0,0,1,.29.51,9.59,9.59,0,0,1,0,1.1v3.37l-.85.25.09,1.69h4.84l.08-1.34-.86-.5a.61.61,0,0,1-.3-.26,1.37,1.37,0,0,1-.06-.5v-3.51a4,4,0,0,0-.69-2.55,2.63,2.63,0,0,0-2.16-.84,5.81,5.81,0,0,0-1.54.23,9.22,9.22,0,0,0-1.82.72,2.1,2.1,0,0,0-.91-.69,3.35,3.35,0,0,0-1.3-.26,5.07,5.07,0,0,0-1.26.19,10.9,10.9,0,0,0-1.65.63,5.11,5.11,0,0,0-.23-.76,20.92,20.92,0,0,0-3.24.48l-.48.09-.06,1.33.79.43c.15.1.25.18.28.26a1.37,1.37,0,0,1,.06.51v4.33l-1.11.32Zm-9.82,0h5.35l.07-1.34-.87-.5a.71.71,0,0,1-.31-.26,1.75,1.75,0,0,1-.05-.5v-10.1a3.17,3.17,0,0,0-.23-.93,27.73,27.73,0,0,0-3.28.46,4.35,4.35,0,0,0-.55.09l-.09,1.36.78.41a.78.78,0,0,1,.31.25,1.13,1.13,0,0,1,.07.51v8.54l-1.25.37Zm-14.64,0h5.16l.07-1.34-.87-.5a.65.65,0,0,1-.28-.26,1.37,1.37,0,0,1-.06-.5v-2l3.23,4.63h3.13v-.78l-3.43-4.74,3-2.53a6.24,6.24,0,0,0-.21-1.27h-4l-.19,1,.5.62a.25.25,0,0,1,.05.15.26.26,0,0,1-.09.19l-2,1.93v-7.25a3.73,3.73,0,0,0-.23-.93,27.27,27.27,0,0,0-3.29.46l-.56.09,0,1.36.78.41a.75.75,0,0,1,.29.25,1.73,1.73,0,0,1,0,.51v8.54l-1.1.32Zm-7,4,.5-.73a6.48,6.48,0,0,0,1-2.29,14.27,14.27,0,0,0,.27-3v-6.29c-.08-.37-.19-.75-.3-1.14a14,14,0,0,0-2,.25l-1.4.25-.35.07-.09,1.33.8.43c.17.1.27.18.3.26a1.37,1.37,0,0,1,.06.51V114l-1.43,1.66a14.19,14.19,0,0,0,1.25,1.13,10.61,10.61,0,0,0,1.39.84m-1-14.5,3-.82-.75-2.71-3,.8Zm-10.73,10.46h5.35l.07-1.34-.87-.5a.61.61,0,0,1-.3-.26,1.37,1.37,0,0,1-.06-.5v-5.7a8.16,8.16,0,0,0-.28-1.14,10.44,10.44,0,0,0-1.49.15l-2.29.42-.09,1.33.78.43a.92.92,0,0,1,.32.26,1.37,1.37,0,0,1,.06.51v4.33l-1.25.37Zm1.45-10.46,3-.82-.73-2.71-3,.8ZM92.35,113.57h5.17l.07-1.34-.88-.5a.65.65,0,0,1-.28-.26,1.37,1.37,0,0,1-.06-.5v-4.33a10.1,10.1,0,0,1,1.64-.2,1.45,1.45,0,0,1,.84.18.71.71,0,0,1,.3.51,9.68,9.68,0,0,1,0,1.11v3.39l-.87.25.09,1.69h4.91l.08-1.34-.86-.5a.61.61,0,0,1-.3-.26,1.37,1.37,0,0,1-.06-.5v-3.51c0-2.26-.92-3.39-2.78-3.39a4.64,4.64,0,0,0-1.36.21,12.35,12.35,0,0,0-1.67.65v-4.06a3.73,3.73,0,0,0-.23-.93,27.27,27.27,0,0,0-3.29.46l-.56.09-.05,1.36.79.41a.79.79,0,0,1,.28.25,1.44,1.44,0,0,1,0,.51v8.54l-1.1.32Zm-9.46,2.05a3.68,3.68,0,0,1-1.73-.31,1,1,0,0,1-.57-1,3.2,3.2,0,0,1,.11-.76c.53.1,1.06.19,1.58.25l.57.09a2.5,2.5,0,0,1,1.09.33.74.74,0,0,1,.3.65,1.21,1.21,0,0,1-.11.57,4.3,4.3,0,0,1-1.24.14m-.4-6.7a1.3,1.3,0,0,1-1-.39,1.86,1.86,0,0,1-.34-1.21,4.45,4.45,0,0,1,.07-.79,2.67,2.67,0,0,1,.15-.62,3.25,3.25,0,0,1,.78-.11,1.37,1.37,0,0,1,1.08.39,1.77,1.77,0,0,1,.35,1.2,4.51,4.51,0,0,1-.07.78,3.49,3.49,0,0,1-.13.64,4.13,4.13,0,0,1-.86.11m-.42,8.71a6.78,6.78,0,0,0,3.74-.87,2.8,2.8,0,0,0,1.32-2.48,2.19,2.19,0,0,0-.72-1.69,5.07,5.07,0,0,0-2.61-.93l-1.61-.23a4.1,4.1,0,0,1-1-.22.41.41,0,0,1-.24-.4v-.25a7.49,7.49,0,0,0,1.32.11,5.24,5.24,0,0,0,3.24-.86,3,3,0,0,0,1.11-2.49,4.46,4.46,0,0,0-.09-.88h1.39v-2.58H87l-2.14.66a5.65,5.65,0,0,0-2.42-.45,5,5,0,0,0-3.22.9,3.09,3.09,0,0,0-1.11,2.54,2.72,2.72,0,0,0,1.46,2.64,3.62,3.62,0,0,0-.84,1.82,1.16,1.16,0,0,0,.38.82,2.92,2.92,0,0,0-1.22,2.31A2.08,2.08,0,0,0,79,117a5.93,5.93,0,0,0,3.09.64m-14.52-4.06h5.59l0-1.23-1.1-.61a.61.61,0,0,1-.3-.26,1.37,1.37,0,0,1-.06-.5v-4.6l2,0v-2.19l-2,.12v-2.1a7.65,7.65,0,0,1,1.17.06,10.53,10.53,0,0,1,1.36.29l.41-2.42a13.69,13.69,0,0,0-2.24-.23,3.89,3.89,0,0,0-2.75.89,3.27,3.27,0,0,0-.94,2.51v1.16l-1.25.07v1.75l1.25,0v5.22l-1.25.37Zm-10.18-5.33a4.44,4.44,0,0,1,.34-1.89,3.52,3.52,0,0,1,1-.14,1.43,1.43,0,0,1,1,.31,1.37,1.37,0,0,1,.38,1Zm1.34,5.54a7,7,0,0,0,2.12-.32,5.24,5.24,0,0,0,1.71-.82l-.41-1.76a10.54,10.54,0,0,1-1.44.42,6.18,6.18,0,0,1-1.23.15,2,2,0,0,1-1.21-.35,2.22,2.22,0,0,1-.7-1.09L63,109a5.34,5.34,0,0,0-1-3.65,3.8,3.8,0,0,0-3.09-1.29,4.68,4.68,0,0,0-2.37.59,3.92,3.92,0,0,0-1.57,1.7,6,6,0,0,0-.55,2.67,5.07,5.07,0,0,0,1.13,3.49,4.12,4.12,0,0,0,3.22,1.26m-13.85-2.26a1.34,1.34,0,0,1-1.25-.69,4.34,4.34,0,0,1-.4-2.14,8.64,8.64,0,0,1,.08-1.3,3.53,3.53,0,0,1,.22-.93,4.69,4.69,0,0,1,1.3-.18,3.52,3.52,0,0,1,1.37.23v4.62a2.81,2.81,0,0,1-1.32.39m-1,2.28a4.41,4.41,0,0,0,2.62-.87c.08.32.17.59.25.82a17.35,17.35,0,0,0,3.42-.54l.07-1.1-.68-.41a.68.68,0,0,1-.29-.25,1.14,1.14,0,0,1-.06-.45V100.87a4.52,4.52,0,0,0-.23-.93c-.32,0-.76.06-1.3.13s-1.39.22-2.53.42L45,101.85l.8.41a.67.67,0,0,1,.3.26,1.54,1.54,0,0,1,0,.52v1.07l-.92,0a5.11,5.11,0,0,0-3.73,1.27,4.94,4.94,0,0,0-1.31,3.74,5.62,5.62,0,0,0,1,3.44,3.16,3.16,0,0,0,2.67,1.28m-11.94,0a7.47,7.47,0,0,0,2.12-.32,6.32,6.32,0,0,0,1.77-.82l-.43-1.78a10,10,0,0,1-1.46.44,6.09,6.09,0,0,1-1.21.15,1.82,1.82,0,0,1-1.57-.71,3.62,3.62,0,0,1-.52-2.16,4.89,4.89,0,0,1,.41-2.21,5.23,5.23,0,0,1,.82,0,5.09,5.09,0,0,1,1,.09l1.11,1.4,1.19-.1q.14-.72.27-1.56c.08-.57.13-1,.16-1.37a9.5,9.5,0,0,0-3.44-.73,4.37,4.37,0,0,0-3.34,1.3,6,6,0,0,0-.08,7.16,4.06,4.06,0,0,0,3.2,1.27m-13.22-2.31a3.15,3.15,0,0,1-1.39-.24v-4.9a5.34,5.34,0,0,1,1.13-.16c1.22,0,1.83.92,1.83,2.75a8.83,8.83,0,0,1-.09,1.24,7.23,7.23,0,0,1-.23,1.13,3.27,3.27,0,0,1-1.25.18m-.62,2.29a5.24,5.24,0,0,0,3.89-1.34,5.12,5.12,0,0,0,1.35-3.79,5,5,0,0,0-1.06-3.39,3.75,3.75,0,0,0-2.93-1.19,6,6,0,0,0-2,.36v-3.56a2.86,2.86,0,0,0-.25-.93c-.32,0-.76.06-1.33.14s-1.41.22-2.51.41l-.09,1.36.83.41a.75.75,0,0,1,.29.25,1.73,1.73,0,0,1,0,.51v10a11.76,11.76,0,0,0,1.82.54,9.32,9.32,0,0,0,2,.2m-13.83-2a1.09,1.09,0,0,1-.81-.3,1.12,1.12,0,0,1-.29-.82,2.27,2.27,0,0,1,0-.43,5.33,5.33,0,0,1,1-.22,7,7,0,0,1,1.12-.1l.57,0L6,111.31a4.21,4.21,0,0,1-1.73.48M3,113.8a5.14,5.14,0,0,0,1.58-.27,6,6,0,0,0,1.52-.71c0,.17.08.34.12.53l.11.38a19.48,19.48,0,0,0,3.26-.53l.07-1.11L9,111.68a.7.7,0,0,1-.28-.25,1.11,1.11,0,0,1-.06-.44v-3.73a3.16,3.16,0,0,0-.82-2.45,4,4,0,0,0-2.71-.74,13.73,13.73,0,0,0-2.21.2,14.63,14.63,0,0,0-2.19.53,24.79,24.79,0,0,0,.43,3l1.32.09.73-1.44a6.07,6.07,0,0,1,1-.06,2.58,2.58,0,0,1,1.06.16.81.81,0,0,1,.48.55,4.12,4.12,0,0,1,.14,1.24,9.37,9.37,0,0,0-4.13.9,2.47,2.47,0,0,0-1.41,2.21,2.21,2.21,0,0,0,.73,1.72A2.73,2.73,0,0,0,3,113.8"/><path class="cls-1" d="M389.33,86.84H399c.12-.79.28-2.07.48-3.83L398,82.67l-1.25,1.59-3.44.21,5.74-7.6-.18-2h-8.94l-.48,3.82,1.4.26,1.41-1.53,2.51-.18-5.57,7.43Zm-12.54,0h6.07l.07-1.42-1.1-.66a.64.64,0,0,1-.31-.25,1.56,1.56,0,0,1-.06-.55V81.75l3.27-4.81.72-.43-.13-1.68h-4.49l-.12,1.57,1,.47a.28.28,0,0,1,.21.28.47.47,0,0,1-.07.25L380.33,80l-1.87-3.17,1.16-.32-.18-1.7h-5.22l-.07,1.25.82,1,3.26,5.22v2.35l-1.53.43Zm-11.83,0h5.59l.07-1.07-.89-1.06-3-4,3.31-4,.44-.41-.1-1.54h-4.33L366,76.21l.65.48a.45.45,0,0,1,.17.3.27.27,0,0,1,0,.16L365.45,79l-1.72-2.32.94-.23-.2-1.61H359l-.05,1.07.89,1.07,2.87,3.87-3.37,4-.43.41.09,1.53h4.31l.13-1.35-.63-.5a.43.43,0,0,1-.19-.29.28.28,0,0,1,.07-.19L364,82.57,365.78,85l-.93.23Zm-24.38.38,3.3-.31,1.92-5.14,1.87,5.45,3.12-.31,3.74-9.56.73-1-.09-1.52h-4.66l-.11,1.57,1.21.5a.3.3,0,0,1,.23.3.79.79,0,0,1,0,.25l-2.05,6.31-2.19-6.89,1.17-.34-.1-1.7h-4.74L343.81,76l.78,2.3-1.76,5.49-2.21-6.89,1.28-.34-.11-1.7h-5.11l-.07,1.25.6.84ZM326,87.16l3.06-.26L333,77.35l.78-1-.11-1.52H329l-.12,1.57,1.23.5a.29.29,0,0,1,.21.3.79.79,0,0,1-.05.25l-2.12,6.15-2.37-6.75,1.26-.32-.17-1.7h-5.14l-.07,1.25.59.84Zm-14.61-.08a5.36,5.36,0,0,0,4.14-1.59A6.31,6.31,0,0,0,317,81V77l.93-.25-.09-1.93h-5.29l-.09,1.63.87.49c.2.09.33.18.37.28a1.68,1.68,0,0,1,.07.62v3.4a17.9,17.9,0,0,1-.07,1.84,3.51,3.51,0,0,1-.25,1.1,2.4,2.4,0,0,1-.68.34,2.92,2.92,0,0,1-.83.12,1.88,1.88,0,0,1-1.84-1.07,6.68,6.68,0,0,1-.53-2.92V77l1.48-.41L311,74.83h-5.56l-.05,1.79.57.33a.63.63,0,0,1,.34.28,1.68,1.68,0,0,1,.07.62v3.51a6.38,6.38,0,0,0,1.22,4.33,4.87,4.87,0,0,0,3.84,1.39m-19.07-.24h6.1l.07-1.42-1.11-.66a.66.66,0,0,1-.3-.25,1.64,1.64,0,0,1,0-.55V77l1.46.13,1.33,1.59,1.29-.11c0-1-.05-2.23-.15-3.73H289.82c-.09,1.5-.14,2.74-.14,3.73l1.3.11,1.32-1.59,1.49-.13v7.72l-1.55.43Zm-12.13.22a6.5,6.5,0,0,0,3.88-1,3.24,3.24,0,0,0,1.41-2.78,3,3,0,0,0-.29-1.36,3.24,3.24,0,0,0-1-1.08A15.63,15.63,0,0,0,282,79.63a14,14,0,0,1-1.48-.78,2.31,2.31,0,0,1-.7-.6,1.23,1.23,0,0,1-.19-.69,2.44,2.44,0,0,1,.09-.55,2.87,2.87,0,0,1,.9-.11,5.6,5.6,0,0,1,1.61.2l1.35,1.73,1.3-.2.06-.77c.08-1,.13-1.81.16-2.47a8,8,0,0,0-1.83-.56,10.51,10.51,0,0,0-2.09-.21,5.19,5.19,0,0,0-3.42,1,3.51,3.51,0,0,0-1.25,2.87,3.14,3.14,0,0,0,.68,2,6.18,6.18,0,0,0,2.2,1.62c.84.36,1.41.64,1.73.82a2,2,0,0,1,.63.5,1.28,1.28,0,0,1,.14.65,4,4,0,0,1,0,.48,8.56,8.56,0,0,1-1.21.16,5.86,5.86,0,0,1-1.89-.37l-.89-1.51-1.37.26c-.13,1-.23,2.11-.28,3.28a13.49,13.49,0,0,0,4,.61m-13.83-7a5,5,0,0,1-1.1-.1V76.78a8.68,8.68,0,0,1,1-.06,1.8,1.8,0,0,1,1.28.38,1.74,1.74,0,0,1,.38,1.26,5.63,5.63,0,0,1-.18,1.53,4,4,0,0,1-1.39.18m-5.57,6.77h5.5l.07-1.53-.76-.44a1,1,0,0,1-.32-.26,1.52,1.52,0,0,1-.06-.55v-2l.79,0,2.63,4.75h3.25v-.69l-2.85-4.6a3.65,3.65,0,0,0,1.62-1.27,3.34,3.34,0,0,0,.57-1.94,3.79,3.79,0,0,0-.54-2.14A3.16,3.16,0,0,0,269,75a10.45,10.45,0,0,0-3.1-.38,35.68,35.68,0,0,0-5.15.39l-.11,1.46.93.52a.71.71,0,0,1,.38.28,1.86,1.86,0,0,1,.07.61v6.79l-1.3.36Zm-10.93-2.21a2.42,2.42,0,0,1-2.16-1.1,5.71,5.71,0,0,1-.74-3.17,13.29,13.29,0,0,1,.1-1.78,3.11,3.11,0,0,1,.29-1.11,5.36,5.36,0,0,1,2-.37,2.54,2.54,0,0,1,2.17,1,5.11,5.11,0,0,1,.73,3,13.08,13.08,0,0,1-.1,1.63,6.16,6.16,0,0,1-.31,1.38,4.34,4.34,0,0,1-.95.39,3.84,3.84,0,0,1-1,.12m5.19,2.85h1.16V85.06l-2,.09a6.75,6.75,0,0,0,1.39-4.47q0-6.08-5.95-6.08a6.26,6.26,0,0,0-3.23.79,5.16,5.16,0,0,0-2.08,2.23,7.51,7.51,0,0,0-.73,3.43,6.31,6.31,0,0,0,1.45,4.55,5.92,5.92,0,0,0,4.41,1.49,8.25,8.25,0,0,0,1.19-.09Zm-20.3-6.82a4.79,4.79,0,0,1-1.14-.11V76.76c.5-.05.85-.07,1-.07a1.7,1.7,0,0,1,1.3.44,2.28,2.28,0,0,1,.4,1.5,8.34,8.34,0,0,1-.2,1.83,3.56,3.56,0,0,1-1.41.2m-5.59,6.18H235l.07-1.44L234,84.76a.64.64,0,0,1-.31-.25,1.29,1.29,0,0,1-.07-.55V82.6l1,0a5.76,5.76,0,0,0,3.68-1.07,3.54,3.54,0,0,0,1.35-2.94,4.31,4.31,0,0,0-.55-2.32A3.13,3.13,0,0,0,237.37,75a9.57,9.57,0,0,0-3.09-.41c-.92,0-1.79,0-2.6.1s-1.66.17-2.56.31L229,76.47l.92.52a.67.67,0,0,1,.38.28,1.62,1.62,0,0,1,.07.61v6.79l-1.3.36ZM219,84.63a2.45,2.45,0,0,1-2.17-1.1,5.63,5.63,0,0,1-.75-3.17,13.36,13.36,0,0,1,.11-1.78,3.3,3.3,0,0,1,.3-1.11,5.29,5.29,0,0,1,2-.37,2.54,2.54,0,0,1,2.17,1,5.11,5.11,0,0,1,.74,3,13.13,13.13,0,0,1-.11,1.63,6.83,6.83,0,0,1-.3,1.38,4,4,0,0,1-1.95.51m-.37,2.46a6.69,6.69,0,0,0,3.29-.76A5.12,5.12,0,0,0,224,84.12a7.49,7.49,0,0,0,.73-3.44q0-6.08-5.95-6.08a6.29,6.29,0,0,0-3.23.79,5.22,5.22,0,0,0-2.08,2.23,7.51,7.51,0,0,0-.73,3.43,6.31,6.31,0,0,0,1.45,4.55,5.92,5.92,0,0,0,4.41,1.49m-13,.27,2-.68.07-9.64.91-.39-.07-1.82H204l-.05,1.5.93.61a.91.91,0,0,1,.32.26,1.42,1.42,0,0,1,.09.56l.25,4-5.38-6.9h-3.69l-.13,1.57.66.5a.77.77,0,0,1,.25.29,1.22,1.22,0,0,1,.05.46l-.07,7-1,.23.09,1.94H201l.07-1.49-.92-.63a.75.75,0,0,1-.32-.26,1.38,1.38,0,0,1-.09-.54l-.3-4.67Zm-23.8-.18,3.05-.27,2.28-8,.6,6-1.46.37.16,1.64h5.31l.11-1.19-.38-.48a5.87,5.87,0,0,1-.45-.64,1.66,1.66,0,0,1-.15-.56l-1-7,1.14-.28L191,74.83h-4.78l-2.53,8.31-2.55-8.31H176l-.11,1.7.82.46a2.08,2.08,0,0,1,.37.27.49.49,0,0,1,.09.32,2.63,2.63,0,0,1,0,.3l-1,6.88-.82.5.18,1.58H180l.17-1.62-1.1-.46a.43.43,0,0,1-.25-.45v-.07l.39-5.27Zm-20.21-.34h9.14c.15-1.56.23-2.85.25-3.85l-1.37-.07-1.51,1.73-2.25.06V77l1.32-.36-.09-1.82h-5.56l-.05,1.7.75.42a.7.7,0,0,1,.35.28,2,2,0,0,1,.06.62v6.82l-1.13.3Zm-16.19,0h5.52l.07-1.53-.94-.53a.69.69,0,0,1-.33-.29,1.54,1.54,0,0,1-.06-.53V81.48l4,5.36h3.41V86l-4.37-5.63,4.08-4.36-.21-1.22h-4.14L152.29,76l.51.62a.25.25,0,0,1,.06.16.3.3,0,0,1-.07.2l-3.12,3.37V77l1.32-.36-.09-1.82h-5.56l-.06,1.7L146,77a.66.66,0,0,1,.35.28,2,2,0,0,1,.06.62v6.82l-1.12.3ZM137.52,89l.55-.78a8.47,8.47,0,0,0,1.09-2.42,13.09,13.09,0,0,0,.3-3.09V77l1.3-.36-.09-1.82H135l-.07,1.59.91.53a.72.72,0,0,1,.37.28,1.68,1.68,0,0,1,.07.62v7.37L134.79,87a8.53,8.53,0,0,0,1.19,1.1,15.58,15.58,0,0,0,1.54.93m-13-2.16h5.68l.06-1.53-.91-.55a.67.67,0,0,1-.33-.25A1.56,1.56,0,0,1,129,84V77l1.28-.36-.07-1.82h-5.72l-.09,1.59.93.53a.72.72,0,0,1,.37.28,1.68,1.68,0,0,1,.07.62v6.82l-1.3.36Zm-17.39,0h5.52l.07-1.53-.94-.55a.67.67,0,0,1-.33-.25,1.56,1.56,0,0,1-.06-.55V81.84l4.06.17v2.66l-1.25.34.09,1.83h5.42l.07-1.65-.73-.43a.64.64,0,0,1-.31-.25,1.48,1.48,0,0,1-.07-.55V77l1.09-.3-.07-1.88h-5.47l-.09,1.63L115,77a.71.71,0,0,1,.38.28,1.68,1.68,0,0,1,.07.62V79.5l-4.06.11V77l1.32-.36-.09-1.82h-5.56l-.06,1.7.75.42a.66.66,0,0,1,.35.28,2,2,0,0,1,.06.62v6.82L107,85Zm-9.8.22a10.83,10.83,0,0,0,2.51-.3,9.9,9.9,0,0,0,2.3-.81V81.28a2.84,2.84,0,0,0-.27-.76,18.69,18.69,0,0,0-2,.22L98.48,81l-.41.07L98,82.25l.67.33a.87.87,0,0,1,.31.25,1.51,1.51,0,0,1,0,.47v1.3a9.77,9.77,0,0,1-1.09.07,3.15,3.15,0,0,1-2.55-1,4.84,4.84,0,0,1-.81-3.06,9.66,9.66,0,0,1,.17-1.92,4.65,4.65,0,0,1,.5-1.43,11.4,11.4,0,0,1,1.5-.13,6.43,6.43,0,0,1,2.21.33l1.12,1.63,1.36-.08c.21-1.14.38-2.28.49-3.43a11.57,11.57,0,0,0-4.5-.92,7,7,0,0,0-3.3.73A5,5,0,0,0,92,77.48a6.92,6.92,0,0,0-.73,3.29,6.56,6.56,0,0,0,1.51,4.7,6,6,0,0,0,4.53,1.59m-20-.22h5.86l0-1.44-1.07-.64a.78.78,0,0,1-.33-.25,1.56,1.56,0,0,1-.06-.55V82.1l3.8.41V79.77l-3.8.34V76.94l2.69.07,1.27,1.57,1.32-.09c0-1.19,0-2.41-.13-3.66H77.26l-.06,1.61.89.51a.71.71,0,0,1,.38.28,1.68,1.68,0,0,1,.07.62v6.82l-1.3.36Zm-14.77,0h9.83c.13-1.18.22-2.4.27-3.65l-1.32-.09L70,84.67l-3,0V81.85l3.8.41V79.52l-3.8.32v-2.9L69.7,77,71,78.58l1.32-.09c0-1.19,0-2.41-.13-3.66H62.49l-.06,1.61.89.51a.71.71,0,0,1,.38.28,1.68,1.68,0,0,1,.07.62v6.82l-1.3.36ZM52.19,84.35a11,11,0,0,1-1.36-.09V77l.38,0,.43,0a3.17,3.17,0,0,1,2.52,1,4.51,4.51,0,0,1,.83,3,12.46,12.46,0,0,1-.14,1.76A7.34,7.34,0,0,1,54.56,84a6.35,6.35,0,0,1-2.37.36M49.94,86.9a15.51,15.51,0,0,0,4.4-.53,5.35,5.35,0,0,0,2.78-1.9,6.74,6.74,0,0,0,1.18-4.15,6.66,6.66,0,0,0-.69-3.26,4,4,0,0,0-2.17-1.8,11.27,11.27,0,0,0-3.95-.57c-.51,0-1.18,0-2,.08L46.34,75l-.1,1.48.92.52a.67.67,0,0,1,.38.28,1.62,1.62,0,0,1,.07.61v6.79l-1.3.36.09,1.71c1.08.1,2.26.16,3.54.16m-13.34.21a9.12,9.12,0,0,0,2.52-.38,8.74,8.74,0,0,0,2.24-1l-.56-2a15.85,15.85,0,0,1-1.86.49,8.89,8.89,0,0,1-1.58.19,2.83,2.83,0,0,1-2.29-1,4.88,4.88,0,0,1-.72-2.93,9.49,9.49,0,0,1,.18-1.84A5.59,5.59,0,0,1,35,77.24a7.38,7.38,0,0,1,1.36-.13,5.93,5.93,0,0,1,1.73.24l1.23,1.8,1.35-.09c.24-1.3.41-2.48.52-3.55a10.93,10.93,0,0,0-4.3-.94,6.38,6.38,0,0,0-3.17.74,4.89,4.89,0,0,0-2,2.13,7.33,7.33,0,0,0-.7,3.33,6.8,6.8,0,0,0,1.46,4.68,5.24,5.24,0,0,0,4.17,1.66m-14.4-2.4a7.52,7.52,0,0,1-1.41-.13v-2.9l.41,0a4.83,4.83,0,0,1,.59,0,2.53,2.53,0,0,1,1.57.38,1.53,1.53,0,0,1,.46,1.26,5.3,5.3,0,0,1-.18,1.27,4,4,0,0,1-1.44.18m.75-5c-.43,0-.89,0-1.37,0h-.79v-3c.31,0,.62,0,.93,0a1.59,1.59,0,0,1,1.06.39,1.55,1.55,0,0,1,.35,1.11A4.73,4.73,0,0,1,23,79.7m-2.62,7.21a16.6,16.6,0,0,0,3.19-.17,4.46,4.46,0,0,0,2.62-1.29A3.69,3.69,0,0,0,27,82.87a2.69,2.69,0,0,0-1.78-2.6A3.24,3.24,0,0,0,26,79.16a3.71,3.71,0,0,0,.25-1.42,2.61,2.61,0,0,0-1.17-2.37,7.1,7.1,0,0,0-3.71-.75,41,41,0,0,0-4.95.37l-.11,1.48.93.52a.67.67,0,0,1,.37.28,1.62,1.62,0,0,1,.07.61v6.79l-1.3.36.09,1.74c1.28.1,2.57.14,3.85.14M7.23,81.12,4.94,81,6.11,77.6ZM.36,86.84H5l.17-1.56L4,84.76a.36.36,0,0,1-.15-.1.32.32,0,0,1,0-.19,1,1,0,0,1,.05-.26l.39-1.13,3.62,0,.57,1.8-1.26.32.17,1.69h5l.11-1.26-.32-.41a3.6,3.6,0,0,1-.27-.39c0-.1-.13-.3-.25-.61L8,74.55l-3,.27L.84,84.92l-.55.34Z"/><path class="cls-1" d="M59.9,60.12h5.35l.07-1.27-1.07-.57A.7.7,0,0,1,64,58a1.67,1.67,0,0,1-.05-.49V53.47a14,14,0,0,1,1.55-.09c.2,0,.52,0,1,0a9.56,9.56,0,0,0,.17-1.28q.08-.8.09-1.47h-1a8.83,8.83,0,0,0-1.82,1.16c-.1-.46-.2-.85-.3-1.16a22.87,22.87,0,0,0-3.19.48l-.52.09,0,1.34.78.43a.69.69,0,0,1,.29.26,1.6,1.6,0,0,1,0,.5V58.1l-1.09.32Zm-6.22-1.78a1.09,1.09,0,0,1-.81-.3,1.13,1.13,0,0,1-.29-.83,2.37,2.37,0,0,1,.05-.43,7.5,7.5,0,0,1,1-.22,8.39,8.39,0,0,1,1.12-.1l.57,0,.07,1.35a4.24,4.24,0,0,1-1.73.49m-1.19,2a5.14,5.14,0,0,0,1.58-.27,6.42,6.42,0,0,0,1.52-.71c0,.16.08.34.12.52s.09.32.11.39a19.7,19.7,0,0,0,3.26-.54l.07-1.1-.71-.41a.78.78,0,0,1-.28-.25,1.14,1.14,0,0,1-.06-.45V53.81a3.15,3.15,0,0,0-.82-2.45,4,4,0,0,0-2.71-.74,13.73,13.73,0,0,0-2.21.2,13.5,13.5,0,0,0-2.19.53,25.09,25.09,0,0,0,.43,3l1.32.09L52.65,53a7.82,7.82,0,0,1,1-.05,2.8,2.8,0,0,1,1.06.15.83.83,0,0,1,.48.55,4.16,4.16,0,0,1,.14,1.24,9.36,9.36,0,0,0-4.13.91A2.46,2.46,0,0,0,49.82,58a2.22,2.22,0,0,0,.73,1.72,2.73,2.73,0,0,0,1.94.67m-8.71-.23h5.34l.08-1.34-.88-.5A.62.62,0,0,1,48,58a1.37,1.37,0,0,1-.05-.49V47.41a3.18,3.18,0,0,0-.24-.92,25.62,25.62,0,0,0-3.27.46,4.46,4.46,0,0,0-.56.09l-.09,1.35.79.41a.86.86,0,0,1,.31.26,1.37,1.37,0,0,1,.06.51V58.1l-1.24.38Zm-7.56.25a5,5,0,0,0,1.47-.26,7.41,7.41,0,0,0,1.55-.69h0a2.18,2.18,0,0,1,.09.34c.06.21.11.39.16.54.57,0,1.18-.09,1.85-.19a17.64,17.64,0,0,0,1.76-.35l.06-1.1-.71-.41a.58.58,0,0,1-.25-.25,1.21,1.21,0,0,1-.06-.45V51.71a4.58,4.58,0,0,0-.3-1,12.46,12.46,0,0,0-1.49.16l-2.25.41-.07,1.34.78.43a.76.76,0,0,1,.29.26,1.6,1.6,0,0,1,.05.5v3.89a4.73,4.73,0,0,1-1.66.3,1.53,1.53,0,0,1-.83-.17.66.66,0,0,1-.28-.49,8.78,8.78,0,0,1,0-1.1V51.71a4.58,4.58,0,0,0-.3-1,17.72,17.72,0,0,0-2,.25l-1.4.25a1.5,1.5,0,0,1-.36.07l-.09,1.34L33,53a.82.82,0,0,1,.32.26,1.27,1.27,0,0,1,.06.5V57a4,4,0,0,0,.69,2.56,2.61,2.61,0,0,0,2.12.85m-9.53,1.8A3.69,3.69,0,0,1,25,61.85a1,1,0,0,1-.57-1,4,4,0,0,1,.11-.77c.53.11,1.06.19,1.59.25l.57.09a2.45,2.45,0,0,1,1.08.33.77.77,0,0,1,.31.65,1.28,1.28,0,0,1-.11.57,4,4,0,0,1-1.25.15m-.39-6.7a1.26,1.26,0,0,1-1-.4,1.78,1.78,0,0,1-.34-1.21,5.32,5.32,0,0,1,.06-.78,2.67,2.67,0,0,1,.15-.62,2.94,2.94,0,0,1,.79-.11,1.36,1.36,0,0,1,1.07.39,1.76,1.76,0,0,1,.35,1.19,5.79,5.79,0,0,1-.06.79,3.53,3.53,0,0,1-.14.64,4,4,0,0,1-.85.11m-.43,8.71a6.76,6.76,0,0,0,3.74-.87,2.81,2.81,0,0,0,1.32-2.48,2.19,2.19,0,0,0-.72-1.69,5,5,0,0,0-2.61-.93L26,58A4.61,4.61,0,0,1,25,57.76a.41.41,0,0,1-.24-.4v-.25a7.7,7.7,0,0,0,1.32.1,5.2,5.2,0,0,0,3.24-.85,3,3,0,0,0,1.11-2.5,4.43,4.43,0,0,0-.09-.87h1.39V50.41h-.84l-2.14.66a5.59,5.59,0,0,0-2.42-.45,5,5,0,0,0-3.21.9A3.07,3.07,0,0,0,22,54.06a2.74,2.74,0,0,0,1.46,2.64,3.59,3.59,0,0,0-.83,1.81,1.13,1.13,0,0,0,.37.82,2.94,2.94,0,0,0-1.21,2.32,2.09,2.09,0,0,0,1,1.89,6,6,0,0,0,3.09.64M15.29,54.79a4.24,4.24,0,0,1,.34-1.89,3.46,3.46,0,0,1,1-.14,1.4,1.4,0,0,1,1,.31,1.37,1.37,0,0,1,.38,1Zm1.33,5.54A7.31,7.31,0,0,0,18.74,60a5.4,5.4,0,0,0,1.72-.82l-.41-1.76a13.86,13.86,0,0,1-1.45.42,6,6,0,0,1-1.23.15,1.92,1.92,0,0,1-1.2-.35,2.19,2.19,0,0,1-.7-1.1l5.41-1a5.33,5.33,0,0,0-1-3.66,3.83,3.83,0,0,0-3.09-1.28,4.63,4.63,0,0,0-2.37.59,3.92,3.92,0,0,0-1.57,1.7,5.9,5.9,0,0,0-.55,2.66,5,5,0,0,0,1.13,3.5,4.08,4.08,0,0,0,3.21,1.26m-10.29-7a5.08,5.08,0,0,1-1.11-.11V50.05a8.82,8.82,0,0,1,1,0,1.77,1.77,0,0,1,1.27.37,1.71,1.71,0,0,1,.38,1.27,6.21,6.21,0,0,1-.17,1.53,4,4,0,0,1-1.39.18M.75,60.12h5.5l.08-1.54-.77-.44a.78.78,0,0,1-.31-.26,1.49,1.49,0,0,1-.06-.54v-2l.78,0,2.64,4.76h3.24l0-.7L9,54.83a3.67,3.67,0,0,0,1.62-1.28,3.33,3.33,0,0,0,.57-1.93,3.75,3.75,0,0,0-.55-2.15,3.1,3.1,0,0,0-1.72-1.19,10,10,0,0,0-3.1-.39,34.23,34.23,0,0,0-5.14.4L.59,49.75l.92.51a.71.71,0,0,1,.38.28,1.65,1.65,0,0,1,.07.61v6.79l-1.3.36Z"/><path class="cls-1" d="M142.43,13.83a8.78,8.78,0,0,1,.68-3.78,6.64,6.64,0,0,1,2-.29,2.78,2.78,0,0,1,1.94.63,2.7,2.7,0,0,1,.77,2Zm2.68,11.08a14.39,14.39,0,0,0,4.24-.64,11.12,11.12,0,0,0,3.42-1.64L152,19.1a20.8,20.8,0,0,1-2.89.84,12.2,12.2,0,0,1-2.46.3,3.86,3.86,0,0,1-2.4-.69,4.43,4.43,0,0,1-1.41-2.2l10.83-2q.1-4.74-2.05-7.31a7.6,7.6,0,0,0-6.18-2.56,9.36,9.36,0,0,0-4.74,1.17,7.85,7.85,0,0,0-3.13,3.41,11.8,11.8,0,0,0-1.11,5.32,10.17,10.17,0,0,0,2.26,7,8.19,8.19,0,0,0,6.44,2.53m-31.65-.46H123.8l.14-2.68-1.75-1a1.35,1.35,0,0,1-.57-.54,3.12,3.12,0,0,1-.1-1V10.62a17.11,17.11,0,0,1,3.24-.39,3,3,0,0,1,1.69.35,1.5,1.5,0,0,1,.59,1,16,16,0,0,1,.11,2.25v6.73l-1.75.5.18,3.39h9.83l.15-2.68-1.71-1a1.33,1.33,0,0,1-.61-.54,3,3,0,0,1-.11-1v-7q0-6.78-5.66-6.77a9.86,9.86,0,0,0-2.59.37,25.23,25.23,0,0,0-3.54,1.37,10.54,10.54,0,0,0-.47-1.64,48.17,48.17,0,0,0-6.73,1l-.78.15-.11,2.67,1.57.85a1.47,1.47,0,0,1,.57.52,3.06,3.06,0,0,1,.1,1v8.62l-2.21.64Zm-14-4.39a4.92,4.92,0,0,1-4.35-2.21,11.23,11.23,0,0,1-1.5-6.34A26.68,26.68,0,0,1,93.83,8a6.46,6.46,0,0,1,.6-2.22A10.55,10.55,0,0,1,98.35,5a5,5,0,0,1,4.33,2,10.08,10.08,0,0,1,1.48,6,26,26,0,0,1-.21,3.26,13.6,13.6,0,0,1-.61,2.76,7.83,7.83,0,0,1-3.88,1M98.71,25a13.42,13.42,0,0,0,6.58-1.53A10.3,10.3,0,0,0,109.51,19,15.15,15.15,0,0,0,111,12.15Q111,0,99.07,0a12.58,12.58,0,0,0-6.45,1.57A10.37,10.37,0,0,0,88.45,6,15,15,0,0,0,87,12.9Q87,19,89.89,22t8.82,3m-36.13-.5H78.22q.5-3.7.68-6.41l-2.46-.5-2.1,2.49-4.49.32L78.4,10.05l-.5-4.21H63.54q-.28,2.32-.57,6.45l2.39.4,1.81-2.43,4.32-.32L62.26,20.81Zm-13-10.65a8.78,8.78,0,0,1,.68-3.78,6.64,6.64,0,0,1,2-.29,2.78,2.78,0,0,1,1.94.63,2.7,2.7,0,0,1,.77,2Zm2.68,11.08a14.39,14.39,0,0,0,4.24-.64,11.12,11.12,0,0,0,3.42-1.64l-.82-3.53a20.8,20.8,0,0,1-2.89.84,12.2,12.2,0,0,1-2.46.3,3.84,3.84,0,0,1-2.4-.69A4.43,4.43,0,0,1,50,17.35l10.83-2q.1-4.74-2-7.31a7.6,7.6,0,0,0-6.18-2.56,9.36,9.36,0,0,0-4.74,1.17,7.85,7.85,0,0,0-3.13,3.41,11.8,11.8,0,0,0-1.11,5.32,10.17,10.17,0,0,0,2.26,7,8.19,8.19,0,0,0,6.44,2.53M28.4,25a9.61,9.61,0,0,0,2.94-.52,14.91,14.91,0,0,0,3.08-1.37h.11a3.3,3.3,0,0,1,.18.68c.12.43.23.78.32,1.07a33.37,33.37,0,0,0,3.71-.38c1.33-.2,2.5-.43,3.52-.69l.11-2.21L41,20.74a1.18,1.18,0,0,1-.5-.5,2.55,2.55,0,0,1-.11-.89V7.66a8.85,8.85,0,0,0-.61-2.07,21.37,21.37,0,0,0-3,.33c-1.08.19-2.59.46-4.51.82l-.14,2.67,1.57.85a1.64,1.64,0,0,1,.57.52,3.06,3.06,0,0,1,.1,1v7.76a9.16,9.16,0,0,1-3.31.61,3,3,0,0,1-1.66-.34,1.36,1.36,0,0,1-.57-1,18.32,18.32,0,0,1-.09-2.21v-9a9.37,9.37,0,0,0-.6-2.07,33.14,33.14,0,0,0-4,.5l-2.8.5a4.31,4.31,0,0,1-.71.15l-.18,2.67,1.6.85a1.69,1.69,0,0,1,.63.52,2.66,2.66,0,0,1,.12,1v6.37a7.94,7.94,0,0,0,1.39,5.12A5.17,5.17,0,0,0,28.4,25M8.94,24.91q5,0,7.77-2a6.5,6.5,0,0,0,2.82-5.56,5.86,5.86,0,0,0-.59-2.73,6.32,6.32,0,0,0-2.05-2.15,29.75,29.75,0,0,0-4.31-2.39,32.84,32.84,0,0,1-3-1.55A4.68,4.68,0,0,1,8.23,7.29a2.42,2.42,0,0,1-.39-1.37A4.87,4.87,0,0,1,8,4.81,5.9,5.9,0,0,1,9.84,4.6,11.13,11.13,0,0,1,13,5l2.71,3.46,2.6-.4.11-1.53c.17-2,.27-3.62.32-4.95A16.18,16.18,0,0,0,15.13.45,21.18,21.18,0,0,0,10.94,0,10.38,10.38,0,0,0,4.1,2.1,7.06,7.06,0,0,0,1.6,7.84,6.43,6.43,0,0,0,3,11.92a12.48,12.48,0,0,0,4.42,3.23q2.49,1.1,3.45,1.65a3.59,3.59,0,0,1,1.25,1,2.43,2.43,0,0,1,.29,1.3c0,.17,0,.49-.08,1a17.31,17.31,0,0,1-2.42.32,11.9,11.9,0,0,1-3.78-.74l-1.78-3-2.74.53q-.39,3-.57,6.56a27.35,27.35,0,0,0,7.94,1.21"/><path class="cls-1" d="M136.91,432.45a1.41,1.41,0,0,1,2.71,0,13.73,13.73,0,0,1,0,6.7,1.42,1.42,0,0,1-2.72,0,14,14,0,0,1,0-6.72m4.69-1.53a4.23,4.23,0,0,0-6.68-.07,9,9,0,0,0-1.09,5,8.78,8.78,0,0,0,1.12,4.88,3.74,3.74,0,0,0,3.32,1.66,3.81,3.81,0,0,0,3.36-1.6,11.48,11.48,0,0,0,0-9.83m-16.87,1.26a2.81,2.81,0,0,1,.54,1.75,1.63,1.63,0,0,1-.58,1.23,2,2,0,0,1-1.4.53,1.57,1.57,0,0,1-1.3-.54,2.3,2.3,0,0,1-.42-1.46A2.5,2.5,0,0,1,122,432a1.56,1.56,0,0,1,1.3-.58,1.67,1.67,0,0,1,1.39.72m2.65-.29a4.24,4.24,0,0,0-1.63-1.92,4.52,4.52,0,0,0-2.46-.66,4.22,4.22,0,0,0-3.16,1.18,4.41,4.41,0,0,0-1.17,3.24,4.27,4.27,0,0,0,1,3,3.34,3.34,0,0,0,2.62,1.06,3.67,3.67,0,0,0,1.65-.33,3,3,0,0,0,1.17-1.15h.1a5.36,5.36,0,0,1-.53,2.34,2.72,2.72,0,0,1-1.33,1.24,5.28,5.28,0,0,1-2.22.4,6.41,6.41,0,0,1-1.53-.18v2.16a9.17,9.17,0,0,0,1.72.12,6,6,0,0,0,4.79-1.86q1.58-1.85,1.58-5.61a7.32,7.32,0,0,0-.56-3m-17.59-.29a1.16,1.16,0,0,1,.43.95,1.47,1.47,0,0,1-.34,1,3.21,3.21,0,0,1-1.19.81,3.66,3.66,0,0,1-1.21-.84,1.43,1.43,0,0,1-.34-.94,1.16,1.16,0,0,1,.42-.94,1.66,1.66,0,0,1,1.11-.36,1.76,1.76,0,0,1,1.12.35m-1.23,5a6.51,6.51,0,0,1,1.6,1.08,1.6,1.6,0,0,1,.49,1.1,1.43,1.43,0,0,1-.5,1.13,2.72,2.72,0,0,1-2.92,0,1.38,1.38,0,0,1-.52-1.16c0-.87.61-1.59,1.85-2.16m-2.82-6.5a2.64,2.64,0,0,0-1.13,2.21,3.26,3.26,0,0,0,.48,1.72,4.84,4.84,0,0,0,1.56,1.47A4.77,4.77,0,0,0,104.8,437a3.34,3.34,0,0,0-.58,1.94,3,3,0,0,0,1.19,2.51,5.39,5.39,0,0,0,3.28.89,5.11,5.11,0,0,0,3.23-1,3,3,0,0,0,1.22-2.51,3,3,0,0,0-.62-1.83,6.17,6.17,0,0,0-2-1.59,4.67,4.67,0,0,0,1.74-1.36,2.94,2.94,0,0,0,.54-1.74,2.65,2.65,0,0,0-1.11-2.24,5.63,5.63,0,0,0-5.9,0m-12.15,12,4.81-11v-1.69H89.27v2.26h6.27l-4.77,10.44Zm-15.75-2.69a2.72,2.72,0,0,1-.55-1.74,1.62,1.62,0,0,1,.58-1.24,2,2,0,0,1,1.4-.53,1.59,1.59,0,0,1,1.3.53A2.34,2.34,0,0,1,81,438a2.65,2.65,0,0,1-.46,1.65,1.59,1.59,0,0,1-1.33.58,1.65,1.65,0,0,1-1.37-.72m-2.65.31a4.22,4.22,0,0,0,1.62,1.9,4.52,4.52,0,0,0,2.46.66,4.22,4.22,0,0,0,3.18-1.19,4.42,4.42,0,0,0,1.15-3.22,4.22,4.22,0,0,0-1-3A3.38,3.38,0,0,0,80,433.91a3,3,0,0,0-2.76,1.48h-.11a5.5,5.5,0,0,1,.52-2.33,2.78,2.78,0,0,1,1.3-1.23,5.27,5.27,0,0,1,2.26-.42,6.66,6.66,0,0,1,1.53.18v-2.15a8.42,8.42,0,0,0-1.7-.13,6,6,0,0,0-4.78,1.84q-1.6,1.85-1.6,5.62a7.27,7.27,0,0,0,.57,3m-12-5.62-.3.06.23-2.5H67.7v-2.28H60.8l-.48,6.48,1.07.58a7,7,0,0,1,.9-.2,6.41,6.41,0,0,1,1-.09c1.7,0,2.55.64,2.55,1.93s-.82,2-2.46,2a6.7,6.7,0,0,1-1.73-.23,6.94,6.94,0,0,1-1.6-.59v2.32a7.32,7.32,0,0,0,3.42.69,5.56,5.56,0,0,0,3.76-1.15,4.12,4.12,0,0,0,1.32-3.28,3.73,3.73,0,0,0-1.1-2.84,4.06,4.06,0,0,0-2.93-1,6.13,6.13,0,0,0-1.32.12m-16.15,3.28,2.33-3.52a9.63,9.63,0,0,0,.77-1.4h.07c0,.11,0,.51-.07,1.2s0,1.2,0,1.56v2.16Zm7.22,0H52.76v-8H50.28l-5.58,8.22v1.87h5.43v2.63h2.63v-2.63h1.53Zm-16.73-7.38a5.38,5.38,0,0,0-3.12-.8,7,7,0,0,0-4.15,1.25l1.25,1.86a6.1,6.1,0,0,1,1.44-.73,4.37,4.37,0,0,1,1.27-.2c1.21,0,1.81.48,1.81,1.44a1.41,1.41,0,0,1-.68,1.33,4.58,4.58,0,0,1-2.16.38h-1v2.07h1a5.4,5.4,0,0,1,2.33.37,1.31,1.31,0,0,1,.73,1.27,1.65,1.65,0,0,1-.63,1.45,3.37,3.37,0,0,1-2,.46A6.78,6.78,0,0,1,31.9,440a8.38,8.38,0,0,1-1.62-.61v2.29a9.17,9.17,0,0,0,3.67.69,6.07,6.07,0,0,0,3.8-1,3.38,3.38,0,0,0,1.33-2.85,2.63,2.63,0,0,0-.79-2,4.06,4.06,0,0,0-2.33-.93v-.06a3.7,3.7,0,0,0,2-1.14,3,3,0,0,0,.73-2,2.58,2.58,0,0,0-1.15-2.23M24.4,439.91H18.86v-.12l1.64-1.54a23.18,23.18,0,0,0,2.28-2.31,6.57,6.57,0,0,0,1-1.57,4.56,4.56,0,0,0,.31-1.65,3.24,3.24,0,0,0-.51-1.8,3.32,3.32,0,0,0-1.42-1.21,4.81,4.81,0,0,0-2.1-.44,6.92,6.92,0,0,0-1.64.18A5.81,5.81,0,0,0,17,430a9.11,9.11,0,0,0-1.56,1.13l1.46,1.73a7.48,7.48,0,0,1,1.45-1,3.33,3.33,0,0,1,1.44-.33,1.61,1.61,0,0,1,1.12.37,1.42,1.42,0,0,1,.43,1.14,2.81,2.81,0,0,1-.19,1,4.44,4.44,0,0,1-.63,1c-.29.37-.91,1.05-1.85,2l-3.2,3.22v1.87H24.4Zm-17-10.46H5.15l-4.1,3.27,1.3,1.61,1.46-1.17c.18-.14.48-.43.93-.88l0,1.32,0,1.21v7.36H7.36Z"/><path class="cls-1" d="M377.91,413.42h-4.54l4.39-6v-1.72H370.5v2h4.24l-4.51,6.13v1.57h7.68Zm-19.06,2-.16.47a2.74,2.74,0,0,1-.82,1.31,1.92,1.92,0,0,1-1.23.43,4.24,4.24,0,0,1-1-.12v2.11a6.07,6.07,0,0,0,1.35.15,4.07,4.07,0,0,0,2.44-.76,4.77,4.77,0,0,0,1.62-2.28l4.11-11h-2.84l-1.8,5.47a7.57,7.57,0,0,0-.38,1.69h-.05a7.59,7.59,0,0,0-.32-1.69l-1.84-5.47H355Zm-18.7.07h3l2-3.34,2,3.34h3l-3.31-5,3.17-4.76h-3l-1.91,3.1-1.89-3.1h-3l3.13,4.76Zm-7.69,0,2.8-9.73h-2.61L331.49,410c-.06.25-.15.74-.29,1.47s-.22,1.3-.28,1.72h-.05c0-.16,0-.38-.06-.65s-.08-.54-.13-.83-.09-.54-.14-.79-.09-.44-.11-.57l-1.14-4.66h-2.92l-1.21,4.66-.13.74a17.6,17.6,0,0,0-.31,2.1h-.05c-.19-1.36-.37-2.42-.55-3.19L323,405.72h-2.65l2.77,9.73H326l1.78-7.7h.06l1,4.29.75,3.41Zm-20.61,0,3.7-9.73h-2.77l-1.87,5.54a8.4,8.4,0,0,0-.4,2h-.05a9.69,9.69,0,0,0-.39-2l-1.88-5.54h-2.77l3.7,9.73Zm-12.45,0v-9.73h-2.66v4.58a4.61,4.61,0,0,1-.49,2.46,1.8,1.8,0,0,1-1.61.75,1.38,1.38,0,0,1-1.2-.53,2.73,2.73,0,0,1-.37-1.58v-5.68h-2.65v6.34a3.69,3.69,0,0,0,.87,2.64,3.4,3.4,0,0,0,2.58.92,4,4,0,0,0,1.78-.37,2.71,2.71,0,0,0,1.21-1.05H297l.36,1.25Zm-18-2.21a1,1,0,0,1-.31-.84v-4.69h2.72v-2h-2.72v-2.07h-1.7l-.77,2.05-1.46.89v1.12h1.27v4.69a3.5,3.5,0,0,0,.73,2.42,3,3,0,0,0,2.32.8,6,6,0,0,0,2.43-.44v-2a5.85,5.85,0,0,1-1.67.31,1.28,1.28,0,0,1-.84-.27m-10.21-1.93a2.48,2.48,0,0,0-.78-.92,7.58,7.58,0,0,0-1.67-.86,11.15,11.15,0,0,1-1.66-.77.75.75,0,0,1-.37-.62c0-.42.39-.64,1.17-.64a4.46,4.46,0,0,1,1.3.2c.42.14.88.31,1.36.52l.8-1.92a8.1,8.1,0,0,0-3.42-.76,4.84,4.84,0,0,0-2.85.71,2.3,2.3,0,0,0-1,2,3,3,0,0,0,.24,1.28,2.41,2.41,0,0,0,.76.91,8,8,0,0,0,1.65.87c.52.22.94.42,1.26.58a3,3,0,0,1,.66.45.69.69,0,0,1,.19.51c0,.55-.48.83-1.45.83a6.62,6.62,0,0,1-1.63-.24,8.71,8.71,0,0,1-1.66-.58v2.19a6.73,6.73,0,0,0,1.4.43,10.32,10.32,0,0,0,1.81.14,5.17,5.17,0,0,0,3.11-.78,2.68,2.68,0,0,0,1-2.28,2.84,2.84,0,0,0-.26-1.25M255.66,406a3.63,3.63,0,0,0-1.23,1.32h-.13l-.39-1.64h-2v9.73h2.66V410.5a2.35,2.35,0,0,1,.7-1.83,2.82,2.82,0,0,1,2-.65,3.56,3.56,0,0,1,.79.08l.2-2.48a3.84,3.84,0,0,0-.9-.08,3,3,0,0,0-1.67.5m-14.95,9.21a2.83,2.83,0,0,0,1.13-1.07H242a11.92,11.92,0,0,0-.11,1.47v4.08h2.66v-14h-2.25L242,407H242a3.39,3.39,0,0,0-1.21-1.07,3.44,3.44,0,0,0-1.61-.35,3.22,3.22,0,0,0-2.73,1.34,7.49,7.49,0,0,0,0,7.41,3.15,3.15,0,0,0,2.7,1.33,3.46,3.46,0,0,0,1.63-.37m-2.13-2.43a4.08,4.08,0,0,1-.47-2.18c0-2,.62-2.95,1.87-2.95a1.8,1.8,0,0,1,1.56.68,4,4,0,0,1,.48,2.25v.32a3.47,3.47,0,0,1-.51,2,1.8,1.8,0,0,1-1.48.58,1.6,1.6,0,0,1-1.45-.72M226,408.38a4.21,4.21,0,0,1,.44,2.15c0,2-.59,2.94-1.78,2.94a1.65,1.65,0,0,1-1.48-.68,4.09,4.09,0,0,1-.46-2.24v-.29a3.5,3.5,0,0,1,.47-2,1.67,1.67,0,0,1,1.43-.6,1.49,1.49,0,0,1,1.38.72m1.39,6.64a3.76,3.76,0,0,0,1.3-1.75,7.37,7.37,0,0,0,.46-2.7,6.16,6.16,0,0,0-1-3.7,3.15,3.15,0,0,0-2.69-1.33,3.07,3.07,0,0,0-2.76,1.44h-.12l-.38-1.26h-2.16v14h2.66v-3.94c0-.13-.05-.6-.14-1.41h.14a3.22,3.22,0,0,0,2.69,1.24,3.32,3.32,0,0,0,2-.6m-14.72-7.13a4,4,0,0,0-1.64-1.74,4.9,4.9,0,0,0-2.48-.61,4.56,4.56,0,0,0-3.49,1.32,5.2,5.2,0,0,0-1.25,3.71,5.84,5.84,0,0,0,.58,2.68,4.11,4.11,0,0,0,1.64,1.76,4.87,4.87,0,0,0,2.47.61,4.55,4.55,0,0,0,3.49-1.34,5.19,5.19,0,0,0,1.25-3.71,5.91,5.91,0,0,0-.57-2.68m-5.68.51a1.68,1.68,0,0,1,1.53-.72,1.7,1.7,0,0,1,1.54.72,4,4,0,0,1,.47,2.17,4.13,4.13,0,0,1-.47,2.18,1.67,1.67,0,0,1-1.52.74,1.71,1.71,0,0,1-1.55-.74,4.13,4.13,0,0,1-.47-2.18,3.93,3.93,0,0,1,.47-2.17m-10,.7a3.73,3.73,0,0,0-.87-2.65,3.43,3.43,0,0,0-2.58-.91,4.18,4.18,0,0,0-1.77.36,2.74,2.74,0,0,0-1.22,1.06h-.15l-.36-1.24h-2v9.73h2.65v-4.58a4.65,4.65,0,0,1,.49-2.47,1.82,1.82,0,0,1,1.61-.74,1.38,1.38,0,0,1,1.2.53,2.71,2.71,0,0,1,.37,1.58v5.68h2.65Zm-22.39,1.47a4,4,0,0,1,.48-2.21,1.66,1.66,0,0,1,1.46-.7,1.26,1.26,0,0,1,1.11.53,2.89,2.89,0,0,1,.35,1.58v5.68h2.66V409.1a3.77,3.77,0,0,0-.84-2.72,3.43,3.43,0,0,0-2.51-.84,3.8,3.8,0,0,0-1.71.37,2.64,2.64,0,0,0-1.16,1h-.23a3.06,3.06,0,0,0-3-1.42,3.61,3.61,0,0,0-1.7.38,2.71,2.71,0,0,0-1.13,1h-.15l-.35-1.24h-2v9.73h2.66v-4.58a4.88,4.88,0,0,1,.46-2.46,1.59,1.59,0,0,1,1.47-.75,1.23,1.23,0,0,1,1.11.53,2.8,2.8,0,0,1,.36,1.58v5.68h2.65Zm-16.12-8.66H155.9v13.54h2.66Zm-15.82,8.25.14-2.21v-6h-2.65v13.54h2.65v-3l1.14-.91,2.8,3.94h3.07l-4.1-5.51,3.86-4.22h-3l-2.73,3-1.15,1.48Zm-11.25-5.65a1.53,1.53,0,0,0,1.09-.34,1.27,1.27,0,0,0,.36-1c0-.87-.48-1.3-1.45-1.3s-1.44.43-1.44,1.3.48,1.3,1.44,1.3m.43,14.38a3.11,3.11,0,0,0,.9-2.39V405.72h-2.66v10.39a1.68,1.68,0,0,1-.31,1.1,1.19,1.19,0,0,1-1,.38,4.75,4.75,0,0,1-1.24-.17v2.09a6.37,6.37,0,0,0,1.75.22,3.59,3.59,0,0,0,2.54-.84m-9.17-13.17H120.1v9.73h2.65Zm-1.32-1.21a1.51,1.51,0,0,0,1.08-.34,1.27,1.27,0,0,0,.36-1c0-.87-.48-1.3-1.44-1.3s-1.45.43-1.45,1.3.48,1.3,1.45,1.3m-8.69,4.59a3.67,3.67,0,0,0-.89-2.64,3.42,3.42,0,0,0-2.6-.92,3.07,3.07,0,0,0-2.82,1.42h-.14l.06-.78c0-.79.06-1.3.06-1.51v-2.76h-2.65v13.54h2.65v-4.58a4.6,4.6,0,0,1,.5-2.45,1.76,1.76,0,0,1,1.61-.76c1,0,1.56.7,1.56,2.11v5.68h2.66Zm-20.29-2c1,0,1.44.58,1.44,1.75a2.07,2.07,0,0,1-.35,1.26,1.29,1.29,0,0,1-1.09.46,1.32,1.32,0,0,1-1.1-.46A2,2,0,0,1,91,408.9c0-1.17.48-1.75,1.46-1.75m-1.94,8.76a2.09,2.09,0,0,1,1.22-.34h1.38a3.93,3.93,0,0,1,1.48.21.75.75,0,0,1,.48.75,1.18,1.18,0,0,1-.81,1.07A5.1,5.1,0,0,1,92,418a2.86,2.86,0,0,1-1.47-.32.94.94,0,0,1-.53-.86,1.05,1.05,0,0,1,.49-.91m3.63-10.19-.72-.11a7.47,7.47,0,0,0-1-.07,4.49,4.49,0,0,0-3,.87,3,3,0,0,0-1,2.46,3.22,3.22,0,0,0,.45,1.72,2.61,2.61,0,0,0,1.22,1.06,3.54,3.54,0,0,0-.93.73,1.38,1.38,0,0,0,0,1.77,1.83,1.83,0,0,0,.71.57,3.09,3.09,0,0,0-1.61.84,2.09,2.09,0,0,0-.55,1.47,2.25,2.25,0,0,0,1.08,2,5.66,5.66,0,0,0,3.11.71,7.46,7.46,0,0,0,4.08-.94,3,3,0,0,0,1.43-2.65,2.46,2.46,0,0,0-.85-2,3.78,3.78,0,0,0-2.43-.68H92.48c-1,0-1.46-.19-1.46-.58a.89.89,0,0,1,.41-.69l.39,0,.48,0a4.69,4.69,0,0,0,3-.88,2.93,2.93,0,0,0,1.09-2.44,2.7,2.7,0,0,0-.41-1.46l1.52-.39v-1.35Zm-11.23,0h-2.3v-.61a1.4,1.4,0,0,1,.26-.86,1,1,0,0,1,.82-.33,4.82,4.82,0,0,1,1.47.25l.68-1.95a6.86,6.86,0,0,0-2.44-.41,3.75,3.75,0,0,0-2.62.77A3.17,3.17,0,0,0,78,405v.71l-1.46.71v1.28H78v7.74h2.65v-7.74h2.3Zm-14.2,9.73a5.72,5.72,0,0,0,1.49-.52v-2.05a8,8,0,0,1-1.63.58,7.49,7.49,0,0,1-1.67.19,2.35,2.35,0,0,1-1.75-.64,2.54,2.54,0,0,1-.67-1.77h6.27V410a4.45,4.45,0,0,0-1.15-3.25,4.28,4.28,0,0,0-3.21-1.17A4.36,4.36,0,0,0,63,406.87a5.42,5.42,0,0,0-1.22,3.78,4.89,4.89,0,0,0,1.32,3.67,5,5,0,0,0,3.67,1.3,9.53,9.53,0,0,0,1.93-.17m-1-7.49a2.21,2.21,0,0,1,.51,1.52H64.54a2.44,2.44,0,0,1,.55-1.52,1.65,1.65,0,0,1,1.32-.53,1.73,1.73,0,0,1,1.34.53m-18.68,4.83a3.81,3.81,0,0,1-.5-2.15,4.08,4.08,0,0,1,.49-2.19,1.57,1.57,0,0,1,1.38-.76,1.79,1.79,0,0,1,1.57.68,3.93,3.93,0,0,1,.49,2.25v.28a3.47,3.47,0,0,1-.52,2,1.78,1.78,0,0,1-1.49.6,1.62,1.62,0,0,1-1.42-.72m3.24,1.39h.12l.51,1.27h2V401.91H52.31V405a11.11,11.11,0,0,0,.2,1.94h-.08a3.18,3.18,0,0,0-2.8-1.42,3.24,3.24,0,0,0-2.75,1.33,7.51,7.51,0,0,0,0,7.42,3.17,3.17,0,0,0,2.7,1.33,3,3,0,0,0,2.75-1.44m-14,1.28a4.2,4.2,0,0,0,1.3-.56v-2.27a5.22,5.22,0,0,1-1.3.64,5,5,0,0,1-1.42.2q-2.07,0-2.07-2.85t2.07-2.94a3.67,3.67,0,0,1,1.08.16c.36.11.75.24,1.17.41l.78-2.05a6.75,6.75,0,0,0-3-.66,4.6,4.6,0,0,0-3.54,1.31,5.32,5.32,0,0,0-1.23,3.79q0,5,4.54,5a6.91,6.91,0,0,0,1.65-.16m-15.62-7.08a3.8,3.8,0,0,1,.49,2.15,4.09,4.09,0,0,1-.48,2.19,1.48,1.48,0,0,1-1.3.75,1.65,1.65,0,0,1-1.48-.68,4.09,4.09,0,0,1-.46-2.24v-.29a3.42,3.42,0,0,1,.47-2,1.67,1.67,0,0,1,1.43-.6,1.52,1.52,0,0,1,1.33.72M19.44,407h-.11c.07-.88.11-1.52.11-1.92v-3.15H16.78v13.54h2l.44-1.07h.19a3.22,3.22,0,0,0,2.69,1.24,3.25,3.25,0,0,0,2.73-1.32,6.06,6.06,0,0,0,1-3.73,6.19,6.19,0,0,0-1-3.69,3.16,3.16,0,0,0-2.7-1.34A3.07,3.07,0,0,0,19.44,407M6.79,411.74a1.85,1.85,0,0,1-.56,1.41,2.05,2.05,0,0,1-1.47.53c-.86,0-1.29-.37-1.29-1.12A1.32,1.32,0,0,1,4,411.39,3.38,3.38,0,0,1,5.76,411l1,0Zm2.63,3.71V409a3.15,3.15,0,0,0-1-2.6,4.64,4.64,0,0,0-3-.85,7.87,7.87,0,0,0-3.73.88l.88,1.79a6.91,6.91,0,0,1,2.74-.7A1.33,1.33,0,0,1,6.79,409v.42l-1.69.05a6.34,6.34,0,0,0-3.27.82,2.57,2.57,0,0,0-1.08,2.28,3.09,3.09,0,0,0,.8,2.28,3,3,0,0,0,2.21.8,4.44,4.44,0,0,0,1.85-.33A3.82,3.82,0,0,0,7,414.12h.07l.51,1.33Z"/><path class="cls-1" d="M422.41,386.49h-6.26l6.09-8.75V376H413.1v2.23H419l-6.1,8.74v1.75h9.47ZM399.69,376h-2.92l4.22,7.86v4.86h2.68v-5l4.22-7.77H405l-2.65,5.24Zm-11.85,6.31,4-6.31h-2.9l-2.69,4.58L383.5,376h-3l4,6.16-4.22,6.56h2.89l3-4.81,3,4.81h3.08ZM375.62,376H373l-1.62,6.94c-.1.42-.22,1-.34,1.64s-.23,1.24-.28,1.7c-.07-.47-.16-1-.28-1.69s-.23-1.15-.31-1.46L368.29,376h-2.55l-1.85,7.13a15.83,15.83,0,0,0-.35,1.61c-.13.69-.21,1.2-.24,1.54-.13-.94-.34-2-.62-3.34L361.05,376H358.4l3.24,12.72h3.07l1.71-6.66c.08-.3.18-.79.32-1.49s.23-1.19.26-1.51q0,.39.27,1.5c.15.75.26,1.24.32,1.48l1.73,6.68h3.07Zm-27,7.57a24.22,24.22,0,0,0-.66,2.8c0-.23-.12-.64-.26-1.24s-.28-1.11-.41-1.56l-2.4-7.57h-2.72l4.32,12.72h2.94L353.77,376h-2.72ZM333.36,376v7.77a3.25,3.25,0,0,1-.6,2.17,2.38,2.38,0,0,1-1.91.69,2.45,2.45,0,0,1-2-.69,3.19,3.19,0,0,1-.59-2.15V376h-2.69v8.2a4.45,4.45,0,0,0,1.36,3.44,5.42,5.42,0,0,0,3.81,1.25,6.51,6.51,0,0,0,2.82-.56,4.13,4.13,0,0,0,1.82-1.63,4.75,4.75,0,0,0,.63-2.47V376Zm-17.7,2.24h3.45V376H309.5v2.24H313v10.48h2.7Zm-12.51,4.85a6.67,6.67,0,0,0-2.44-1.71,17.56,17.56,0,0,1-1.71-.89,1.88,1.88,0,0,1-.53-.52,1.15,1.15,0,0,1-.16-.62,1.16,1.16,0,0,1,.41-.93,1.71,1.71,0,0,1,1.17-.36,5.42,5.42,0,0,1,1.31.17,12.15,12.15,0,0,1,1.68.58l.87-2.1a13.69,13.69,0,0,0-1.88-.66,7.77,7.77,0,0,0-1.89-.23,4.75,4.75,0,0,0-3.16,1,3.28,3.28,0,0,0-1.15,2.66A3.35,3.35,0,0,0,296,381a3.92,3.92,0,0,0,.93,1.18,7.84,7.84,0,0,0,1.75,1.05,15,15,0,0,1,1.65.86,2.4,2.4,0,0,1,.61.56,1.13,1.13,0,0,1,.21.67,1.17,1.17,0,0,1-.47,1,2.39,2.39,0,0,1-1.37.34,6.36,6.36,0,0,1-1.63-.24,13.63,13.63,0,0,1-2.18-.81v2.51a8.15,8.15,0,0,0,3.61.76,5.41,5.41,0,0,0,3.45-1,3.29,3.29,0,0,0,1.23-2.71,3.33,3.33,0,0,0-.66-2.1m-19.1.75,3,4.88h3q-.87-1.25-3.74-5.54a4.09,4.09,0,0,0,1.74-1.37,3.77,3.77,0,0,0-.62-4.87,6.42,6.42,0,0,0-3.84-.94h-3.7v12.72h2.69v-4.88Zm-1.44-5.63h.82a3.86,3.86,0,0,1,1.93.38,1.41,1.41,0,0,1,.62,1.29,1.51,1.51,0,0,1-.61,1.34,3.26,3.26,0,0,1-1.89.43h-.87Zm-18.42.92a2.84,2.84,0,0,1,2.42-1.08q3.21,0,3.21,4.29t-3.22,4.29a2.82,2.82,0,0,1-2.42-1.08,5.31,5.31,0,0,1-.81-3.21,5.24,5.24,0,0,1,.82-3.21m6.91-1.64a5.79,5.79,0,0,0-4.49-1.69,5.87,5.87,0,0,0-4.5,1.68,6.79,6.79,0,0,0-1.57,4.84,6.92,6.92,0,0,0,1.57,4.88,5.8,5.8,0,0,0,4.49,1.69h.2l2.33,2.86h3.45l-3.06-3.42a4.89,4.89,0,0,0,2.34-2.22,8.09,8.09,0,0,0,.79-3.77,6.92,6.92,0,0,0-1.55-4.85M252.87,377a5.37,5.37,0,0,0-3.52-1h-4.06v12.72H248V384.2h1.15a5.5,5.5,0,0,0,3.65-1.09,3.88,3.88,0,0,0,1.29-3.14,3.63,3.63,0,0,0-1.21-3M248,378.21h1.22a2.46,2.46,0,0,1,1.63.45,1.78,1.78,0,0,1,.51,1.4,1.7,1.7,0,0,1-.61,1.43,3,3,0,0,1-1.87.5H248Zm-18.43.92a2.84,2.84,0,0,1,2.43-1.08q3.21,0,3.21,4.29T232,386.63a2.84,2.84,0,0,1-2.42-1.08,5.31,5.31,0,0,1-.81-3.21,5.24,5.24,0,0,1,.82-3.21m6.91-1.64A5.76,5.76,0,0,0,232,375.8a5.84,5.84,0,0,0-4.5,1.68,6.8,6.8,0,0,0-1.58,4.84,7,7,0,0,0,1.57,4.88,6.81,6.81,0,0,0,9,0,8.36,8.36,0,0,0,0-9.71M218.65,376h-2.43v6c0,.68.05,1.85.13,3.51h-.06L210.77,376h-3.4v12.72h2.41v-6c0-.72-.06-1.93-.17-3.63h.08l5.53,9.62h3.43Zm-24.86,12.72,3.28-10h.08c-.07,1.6-.11,2.58-.12,3s0,.7,0,1v6h2.52V376h-3.68l-3.19,9.73h0l-3-9.73h-3.67v12.72h2.41V382.8c0-.67-.06-2-.17-4.06h.08l3.06,10Zm-14.69,0v-2.23h-5.16V376h-2.7v12.72Zm-18.56-7.09L165,376h-3l-3.45,4.32-1.06,1.5V376h-2.7v12.72h2.7v-4.54l1.14-.82,3.33,5.36H165Zm-14.6,9.66a5,5,0,0,0,1-3.39V376h-2.69v11.92a3.05,3.05,0,0,1-.39,1.73,1.45,1.45,0,0,1-1.27.55,5.63,5.63,0,0,1-1.27-.17v2.24a5.9,5.9,0,0,0,1.6.19,3.79,3.79,0,0,0,3-1.17M136.43,376h-2.7v12.72h2.7Zm-10.54,0H123.2v5h-5v-5h-2.69v12.72h2.69v-5.49h5v5.49h2.69Zm-23.12,7.82h2.41v2.65a8.52,8.52,0,0,1-1.72.18,3,3,0,0,1-2.47-1.09,5.12,5.12,0,0,1-.84-3.17,4.54,4.54,0,0,1,1-3.15,3.56,3.56,0,0,1,2.8-1.18,6.49,6.49,0,0,1,2.9.7l.89-2.16a9.47,9.47,0,0,0-3.77-.78,6.71,6.71,0,0,0-4.89,1.72,6.43,6.43,0,0,0-1.76,4.8,7.06,7.06,0,0,0,1.52,4.86,5.6,5.6,0,0,0,4.4,1.69,14.65,14.65,0,0,0,2.21-.16,13.3,13.3,0,0,0,2.31-.56v-6.59h-5Zm-16.59-.13H90.5v-2.2H86.18v-3.28h4.64V376H83.53v12.72h2.65Zm-9.93,2.8H71.62v-3.28h4.31V381H71.62v-2.79h4.63V376H68.92v12.72h7.33Zm-21.29,0H53.8v-8.28h1.44q3.61,0,3.62,4.1T55,386.49m5-8.85A6.77,6.77,0,0,0,55.1,376h-4v12.72h3.6a7.3,7.3,0,0,0,5.16-1.67,6.27,6.27,0,0,0,1.79-4.81,6.09,6.09,0,0,0-1.72-4.6m-18,.67a14.66,14.66,0,0,1,1.44.6l.87-2.2a8.67,8.67,0,0,0-3.72-.89,6.18,6.18,0,0,0-3.18.79,5.24,5.24,0,0,0-2.07,2.29,8,8,0,0,0-.72,3.48A7.12,7.12,0,0,0,36,387.21a5.33,5.33,0,0,0,4.24,1.68,8.91,8.91,0,0,0,3.5-.65V386a10,10,0,0,1-3.24.67q-3.2,0-3.2-4.26a5.27,5.27,0,0,1,.84-3.18,2.73,2.73,0,0,1,2.36-1.15,4.46,4.46,0,0,1,1.41.25m-19,4.87c1.51,0,2.26.53,2.26,1.58a1.57,1.57,0,0,1-.53,1.31,2.62,2.62,0,0,1-1.64.42H21.22v-3.31Zm-1.67-5h1.42a3.46,3.46,0,0,1,1.69.32,1.12,1.12,0,0,1,.54,1.05,1.27,1.27,0,0,1-.5,1.12,2.87,2.87,0,0,1-1.58.34H21.22Zm-2.7,10.51h4.76a5.51,5.51,0,0,0,3.42-1A3.24,3.24,0,0,0,28,385a3.28,3.28,0,0,0-.53-2,2.82,2.82,0,0,0-1.75-1V382a2.14,2.14,0,0,0,1.43-.88,3.13,3.13,0,0,0,.53-1.87,2.69,2.69,0,0,0-1.22-2.45,7.69,7.69,0,0,0-3.93-.77h-4Zm-14-5.29c.9-2.93,1.45-4.76,1.64-5.51,0,.21.12.5.23.86l1.44,4.65Zm7.78,5.29L7.79,376H4.49L0,388.72H2.91l.92-3H8.47l.92,3Z"/><path class="cls-1" d="M32.43,359.34a3.75,3.75,0,0,1-.5-2.16,4,4,0,0,1,.49-2.19,1.56,1.56,0,0,1,1.38-.75,1.79,1.79,0,0,1,1.57.68,4,4,0,0,1,.48,2.24v.29a3.48,3.48,0,0,1-.51,2,1.8,1.8,0,0,1-1.5.59,1.62,1.62,0,0,1-1.41-.71m3.24,1.39h.11L36.3,362h2V348.46H35.67v3.11a11.11,11.11,0,0,0,.2,1.94h-.09a3.16,3.16,0,0,0-2.8-1.43,3.23,3.23,0,0,0-2.74,1.34,6.08,6.08,0,0,0-1,3.73,6.15,6.15,0,0,0,1,3.69,3.17,3.17,0,0,0,2.69,1.33,3,3,0,0,0,2.76-1.44m-8.62-12.27H24.4V362h2.65Zm-5.42,6A4,4,0,0,0,20,352.69a4.94,4.94,0,0,0-2.47-.61A4.53,4.53,0,0,0,14,353.41a5.18,5.18,0,0,0-1.25,3.7,5.82,5.82,0,0,0,.58,2.68A4,4,0,0,0,15,361.55a4.87,4.87,0,0,0,2.47.62A4.55,4.55,0,0,0,21,360.83a5.22,5.22,0,0,0,1.25-3.72,5.9,5.9,0,0,0-.57-2.67m-5.68.5a1.68,1.68,0,0,1,1.53-.72A1.71,1.71,0,0,1,19,355a4,4,0,0,1,.47,2.16A4.14,4.14,0,0,1,19,359.3a1.67,1.67,0,0,1-1.52.74A1.71,1.71,0,0,1,16,359.3a4.19,4.19,0,0,1-.47-2.19,4,4,0,0,1,.47-2.17M6,356.45c1.51,0,2.26.53,2.26,1.58a1.58,1.58,0,0,1-.53,1.31,2.62,2.62,0,0,1-1.64.43H4.3v-3.32Zm-1.67-5H5.72a3.46,3.46,0,0,1,1.69.32,1.13,1.13,0,0,1,.53,1.05A1.25,1.25,0,0,1,7.45,354a2.85,2.85,0,0,1-1.59.34H4.3ZM1.6,362H6.36a5.45,5.45,0,0,0,3.42-1A3.26,3.26,0,0,0,11,358.31a3.33,3.33,0,0,0-.53-2,2.79,2.79,0,0,0-1.75-1v-.09a2.12,2.12,0,0,0,1.42-.88,3,3,0,0,0,.54-1.87A2.7,2.7,0,0,0,9.49,350a7.69,7.69,0,0,0-3.93-.77h-4Z"/><path class="cls-1" d="M136.35,311.49a2.36,2.36,0,0,1,4.17,0,12.76,12.76,0,0,1,0,8,2.35,2.35,0,0,1-4.17,0,12.69,12.69,0,0,1,0-8.08m5.22-.83a3.84,3.84,0,0,0-6.3-.07,9.32,9.32,0,0,0-1,4.94,9.13,9.13,0,0,0,1.07,4.88,3.84,3.84,0,0,0,6.31,0,9.31,9.31,0,0,0,1-4.92,9,9,0,0,0-1.08-4.87m-16.62,0a2.93,2.93,0,0,1,1,1.22,4,4,0,0,1,.36,1.69,2.06,2.06,0,0,1-.38,1.16,2.67,2.67,0,0,1-1,.88,3.39,3.39,0,0,1-1.46.32,2.37,2.37,0,0,1-1.9-.72,2.86,2.86,0,0,1-.63-2,3.33,3.33,0,0,1,.68-2.22,2.35,2.35,0,0,1,1.92-.8,2.57,2.57,0,0,1,1.47.44m2.29.93a4.24,4.24,0,0,0-1.49-1.94,4.24,4.24,0,0,0-5.19.48,4.32,4.32,0,0,0-1.11,3.13,3.85,3.85,0,0,0,1,2.82,3.62,3.62,0,0,0,2.68,1,4.13,4.13,0,0,0,1.79-.38,3.14,3.14,0,0,0,1.27-1.1h.1a6.5,6.5,0,0,1-1.16,4,3.82,3.82,0,0,1-3.15,1.3,5.21,5.21,0,0,1-1.59-.23v1.24a5.73,5.73,0,0,0,1.6.18q5.79,0,5.78-7.47a7.85,7.85,0,0,0-.52-3m-16.73-.92a1.72,1.72,0,0,1,.63,1.4,2.1,2.1,0,0,1-.51,1.4,4.73,4.73,0,0,1-1.77,1.12,5.18,5.18,0,0,1-1.89-1.15,2,2,0,0,1-.52-1.37,1.74,1.74,0,0,1,.62-1.39,2.55,2.55,0,0,1,1.71-.52,2.68,2.68,0,0,1,1.73.51m-3.88,6.39a5.09,5.09,0,0,1,1.88-1.23,7,7,0,0,1,2.36,1.27,2,2,0,0,1,.68,1.5,2.06,2.06,0,0,1-.72,1.67,3,3,0,0,1-2,.61,3.19,3.19,0,0,1-2-.58,2,2,0,0,1-.73-1.63,2.39,2.39,0,0,1,.59-1.61m-.57-7.26a2.7,2.7,0,0,0-1,2.21,3.08,3.08,0,0,0,.52,1.76,5,5,0,0,0,1.72,1.47q-2.66,1.22-2.66,3.4a3.06,3.06,0,0,0,1.1,2.53,4.86,4.86,0,0,0,3.13.89,4.48,4.48,0,0,0,3-.95,3.14,3.14,0,0,0,1.11-2.52,3,3,0,0,0-.65-1.89,6.31,6.31,0,0,0-2.2-1.55,5.1,5.1,0,0,0,1.86-1.41,2.78,2.78,0,0,0,.58-1.71,2.71,2.71,0,0,0-1-2.24,4.32,4.32,0,0,0-2.76-.81,4.27,4.27,0,0,0-2.73.82M93,321.9l5.2-11.56v-1.16H89.71v1.33h6.94L91.38,321.9Zm-15.07-1.5a2.94,2.94,0,0,1-1-1.23,3.88,3.88,0,0,1-.35-1.67,2,2,0,0,1,.39-1.17,2.52,2.52,0,0,1,1-.89,3.1,3.1,0,0,1,1.43-.32,2.41,2.41,0,0,1,1.9.72,2.9,2.9,0,0,1,.63,2,3.34,3.34,0,0,1-.68,2.25,2.43,2.43,0,0,1-1.92.78,2.5,2.5,0,0,1-1.46-.45m-1.65.19a3.76,3.76,0,0,0,3.13,1.49,3.86,3.86,0,0,0,2.93-1.14,4.32,4.32,0,0,0,1.08-3.12,3.9,3.9,0,0,0-1-2.81,3.56,3.56,0,0,0-2.7-1,3.35,3.35,0,0,0-3,1.49h-.1a6.51,6.51,0,0,1,1.18-4,3.86,3.86,0,0,1,3.12-1.28,5.15,5.15,0,0,1,1.54.22v-1.24a5.78,5.78,0,0,0-1.55-.17,5.13,5.13,0,0,0-4.31,1.86,9,9,0,0,0-1.46,5.61,6.47,6.47,0,0,0,1.16,4.12m-14.14-6.26.32-3.82h5.09v-1.33H61.2l-.47,6,.75.47a13.73,13.73,0,0,1,2.2-.25c2.18,0,3.27.89,3.27,2.66a2.61,2.61,0,0,1-.85,2.09,3.58,3.58,0,0,1-2.38.72,7.29,7.29,0,0,1-1.78-.22,5.08,5.08,0,0,1-1.52-.61v1.39a6.38,6.38,0,0,0,3.28.69A5.06,5.06,0,0,0,67.17,321a3.94,3.94,0,0,0,1.26-3.1,3.41,3.41,0,0,0-1.16-2.73,4.68,4.68,0,0,0-3.16-1,10.41,10.41,0,0,0-2,.2m-15.85,3.34,4-5.66a11.42,11.42,0,0,0,.79-1.38h.07c-.06,1-.09,2-.09,2.81v4.23Zm8,0H52.39v-8.56H50.86l-6,8.61V319H51v2.92h1.38V319h1.89Zm-16.92-7.82a4.4,4.4,0,0,0-2.88-.85,6.64,6.64,0,0,0-2.15.35,6.15,6.15,0,0,0-1.81,1l.73,1a6.93,6.93,0,0,1,1.69-.84,5.37,5.37,0,0,1,1.57-.22,2.62,2.62,0,0,1,1.74.53,1.78,1.78,0,0,1,.64,1.46,2.15,2.15,0,0,1-.87,1.82,3.82,3.82,0,0,1-2.36.66H32.39V316h1.25c2.43,0,3.64.77,3.64,2.32q0,2.58-3.3,2.58a8.18,8.18,0,0,1-1.77-.21,8,8,0,0,1-1.76-.62v1.37a6.5,6.5,0,0,0,1.63.54,10.58,10.58,0,0,0,1.85.15,5.73,5.73,0,0,0,3.58-1,3.32,3.32,0,0,0,1.27-2.8,2.86,2.86,0,0,0-.74-2.05,3.69,3.69,0,0,0-2.27-1v-.07a3.35,3.35,0,0,0,1.93-1,3.21,3.21,0,0,0-.34-4.32M24.05,320.56H17.51v-.07l2.78-2.72a14.93,14.93,0,0,0,2.54-3,4.8,4.8,0,0,0,.68-2.39,3.15,3.15,0,0,0-1-2.47,4.06,4.06,0,0,0-2.81-.92,5.89,5.89,0,0,0-3.83,1.46l.77,1a5.74,5.74,0,0,1,1.58-.95,4.15,4.15,0,0,1,1.5-.26,2.38,2.38,0,0,1,1.71.59,2.16,2.16,0,0,1,.62,1.62,3.47,3.47,0,0,1-.25,1.34,5.31,5.31,0,0,1-.73,1.29,23.36,23.36,0,0,1-2,2.21l-3.35,3.37v1.24h8.36ZM6.22,309.18H5l-3.36,2.61.76,1c1.23-1,1.92-1.57,2.07-1.7l.41-.38c0,.67-.07,1.38-.07,2.14v9.06H6.22Z"/><path class="cls-1" d="M357.38,294.05h-5.26l5.13-7.29v-1.12h-6.46v1.12h4.88l-5.21,7.43v1h6.92ZM340,295.23l-.53,1.36a2.22,2.22,0,0,1-2.13,1.67,5,5,0,0,1-1.07-.11v1.16a5.79,5.79,0,0,0,1.31.15,3,3,0,0,0,2-.68A5.48,5.48,0,0,0,341,296.5l4.1-10.86h-1.55c-1.34,3.69-2.12,5.89-2.37,6.61s-.39,1.22-.47,1.52h-.07a20.24,20.24,0,0,0-.85-2.69l-2.09-5.44h-1.55Zm-17.49-.05h1.64l2.69-3.87,2.67,3.87h1.64l-3.49-4.88,3.32-4.66h-1.63l-2.51,3.66-2.51-3.66h-1.65L326,290.3Zm-7.79,0,2.63-9.54h-1.5c-1.1,4.25-1.71,6.59-1.81,7s-.16.76-.19,1h-.07a17,17,0,0,0-.66-2.52l-1.7-5.47h-1.57l-1.75,5.47c-.1.31-.23.73-.37,1.25s-.24,1-.31,1.29h-.07a21.12,21.12,0,0,0-.55-2.54q-.48-1.87-1.4-5.47h-1.52l2.6,9.54h1.68l1.8-5.58c.17-.55.37-1.33.61-2.35h.06c.31,1.21.51,2,.62,2.33l1.75,5.6Zm-19.29,0,3.62-9.54h-1.54q-1.78,4.88-2.29,6.32a17.91,17.91,0,0,0-.6,1.91h-.07c-.08-.39-.36-1.25-.82-2.57l-2.05-5.66h-1.55l3.62,9.54ZM276,285.64v6.24a3.54,3.54,0,0,0,.87,2.65,3.62,3.62,0,0,0,2.6.82,4.14,4.14,0,0,0,1.8-.37,2.93,2.93,0,0,0,1.23-1.08h.08l.21,1.28H284v-9.54h-1.45v5a4.11,4.11,0,0,1-.69,2.67,2.69,2.69,0,0,1-2.18.82,2.19,2.19,0,0,1-1.67-.57,2.51,2.51,0,0,1-.53-1.74v-6.19Zm-8.86,8.06a2,2,0,0,1-.41-1.32v-5.62h2.77v-1.12h-2.77v-2.21h-.83l-.61,2-1.36.6v.69h1.36v5.68c0,1.94.92,2.91,2.77,2.91a5,5,0,0,0,.82-.07,2.55,2.55,0,0,0,.69-.19V294a3.78,3.78,0,0,1-.56.12,4.52,4.52,0,0,1-.74.06,1.43,1.43,0,0,1-1.13-.46m-9.53-2.7a6.12,6.12,0,0,0-2.29-1.24,15,15,0,0,1-1.67-.71,1.89,1.89,0,0,1-.63-.51,1.09,1.09,0,0,1-.2-.65,1,1,0,0,1,.53-.89,2.9,2.9,0,0,1,1.54-.32,6.84,6.84,0,0,1,2.61.59l.51-1.18a7.72,7.72,0,0,0-3-.62,4.41,4.41,0,0,0-2.6.67,2.13,2.13,0,0,0-1,1.84,2.19,2.19,0,0,0,.27,1.12,2.49,2.49,0,0,0,.84.84,9.67,9.67,0,0,0,1.89.87,8.12,8.12,0,0,1,1.89.93,1.22,1.22,0,0,1,.48,1,1.21,1.21,0,0,1-.61,1.1,3.47,3.47,0,0,1-1.74.36A6.35,6.35,0,0,1,253,294a7,7,0,0,1-1.47-.55v1.34a6,6,0,0,0,3,.6,4.68,4.68,0,0,0,2.79-.72,2.39,2.39,0,0,0,1-2.05,2.19,2.19,0,0,0-.6-1.58m-14.75-5a4.3,4.3,0,0,0-1.28,1.44h-.07l-.16-1.77h-1.19v9.54h1.44v-5.12a3.43,3.43,0,0,1,.82-2.34,2.57,2.57,0,0,1,2-.94,4.83,4.83,0,0,1,1,.13l.2-1.34a5.69,5.69,0,0,0-1.14-.1,2.94,2.94,0,0,0-1.65.5M231,293.9h.12a8.89,8.89,0,0,0-.1,1.48v4.08h1.45V285.64h-1.14l-.21,1.31H231a3.47,3.47,0,0,0-3-1.48,3.53,3.53,0,0,0-2.91,1.31,5.79,5.79,0,0,0-1,3.66,5.64,5.64,0,0,0,1,3.61,3.47,3.47,0,0,0,2.88,1.3,3.4,3.4,0,0,0,3-1.45m-4.76-.7a4.79,4.79,0,0,1-.66-2.75,4.92,4.92,0,0,1,.67-2.79,2.22,2.22,0,0,1,1.94-1,2.53,2.53,0,0,1,2.15.88,4.76,4.76,0,0,1,.68,2.88v.32a4.22,4.22,0,0,1-.7,2.61,2.66,2.66,0,0,1-2.11.77,2.25,2.25,0,0,1-2-.94m-11-5.55a4.51,4.51,0,0,1,.7,2.73,4.72,4.72,0,0,1-.7,2.76,2.23,2.23,0,0,1-1.93,1,2.55,2.55,0,0,1-2.15-.86,4.77,4.77,0,0,1-.67-2.88v-.32a4.13,4.13,0,0,1,.67-2.58,2.55,2.55,0,0,1,2.11-.81,2.3,2.3,0,0,1,2,1m1.15,6.4a5.67,5.67,0,0,0,1.05-3.65,5.77,5.77,0,0,0-1-3.64,3.55,3.55,0,0,0-2.93-1.29,3.86,3.86,0,0,0-1.7.35,3.27,3.27,0,0,0-1.29,1.13h-.07l-.2-1.31h-1.18v13.82h1.45v-3.93a12.73,12.73,0,0,0-.11-1.58h.11A3.21,3.21,0,0,0,211.8,295a4.1,4.1,0,0,0,1.7.34,3.52,3.52,0,0,0,2.91-1.3m-21-6.42a2.53,2.53,0,0,1,2.14-.94,2.58,2.58,0,0,1,2.17.95,4.43,4.43,0,0,1,.74,2.76,4.53,4.53,0,0,1-.74,2.79,2.57,2.57,0,0,1-2.15.95,2.53,2.53,0,0,1-2.15-1,5.67,5.67,0,0,1,0-5.55m5.36-.83a4,4,0,0,0-3.18-1.33,4.1,4.1,0,0,0-3.23,1.3,5.25,5.25,0,0,0-1.17,3.63,6,6,0,0,0,.54,2.63,4,4,0,0,0,1.53,1.72,4.3,4.3,0,0,0,2.27.6,4.17,4.17,0,0,0,3.25-1.31,6.16,6.16,0,0,0,0-7.24m-14.64,8.38V289a3.53,3.53,0,0,0-.87-2.66,3.66,3.66,0,0,0-2.6-.83,4,4,0,0,0-1.78.39,2.87,2.87,0,0,0-1.24,1.09h-.07l-.24-1.31h-1.17v9.54h1.44v-5a4,4,0,0,1,.7-2.67,2.72,2.72,0,0,1,2.19-.81,2.17,2.17,0,0,1,1.66.58,2.45,2.45,0,0,1,.53,1.74v6.17Zm-15.58,0V289a3.7,3.7,0,0,0-.8-2.66,3.24,3.24,0,0,0-2.42-.83,3.86,3.86,0,0,0-1.85.43,3,3,0,0,0-1.23,1.19h-.07a2.84,2.84,0,0,0-2.93-1.62,3.51,3.51,0,0,0-1.66.39,2.75,2.75,0,0,0-1.15,1.09h-.07l-.24-1.31h-1.17v9.54h1.44v-5a4.39,4.39,0,0,1,.63-2.66,2.36,2.36,0,0,1,2-.82,1.88,1.88,0,0,1,1.52.57A2.55,2.55,0,0,1,163,289v6.21h1.44v-5.33a3.66,3.66,0,0,1,.65-2.38,2.43,2.43,0,0,1,2-.78,1.88,1.88,0,0,1,1.51.57,2.55,2.55,0,0,1,.49,1.71v6.21Zm-21.28-13.54h-1.45v13.54h1.45Zm-14.07,8.66c0-.67.07-1.16.07-1.48v-7.18h-1.43v13.54h1.43v-3.57l1.08-.94,3.37,4.51h1.75l-4.13-5.48,3.86-4.06h-1.71l-3.08,3.26a17,17,0,0,0-1.14,1.4Zm-10.37-6.52a.82.82,0,0,0,.61.24.85.85,0,0,0,.6-.24,1,1,0,0,0,.25-.72,1,1,0,0,0-.25-.72.9.9,0,0,0-1.21,0,.94.94,0,0,0-.25.73.93.93,0,0,0,.25.72m1.32,12.86v-11h-1.45v11.1a1.71,1.71,0,0,1-.31,1.13,1.26,1.26,0,0,1-1,.37,4.08,4.08,0,0,1-1.18-.18v1.18a3.57,3.57,0,0,0,1.34.22c1.73,0,2.6-.94,2.6-2.82m-10.46-12.86a.84.84,0,0,0,.61.24.85.85,0,0,0,.6-.24.93.93,0,0,0,.25-.72.91.91,0,0,0-.25-.72.85.85,0,0,0-.6-.24.87.87,0,0,0-.61.23,1,1,0,0,0-.24.73,1,1,0,0,0,.24.72m1.32,1.86h-1.44v9.54H117Zm-9,9.54V289a3.5,3.5,0,0,0-.87-2.64,3.65,3.65,0,0,0-2.62-.83,4,4,0,0,0-1.8.39,3,3,0,0,0-1.21,1.08h-.09a8.27,8.27,0,0,0,.07-1.22v-4.1H100v13.54h1.44v-5a4.16,4.16,0,0,1,.69-2.68,2.74,2.74,0,0,1,2.2-.82,2.17,2.17,0,0,1,1.66.58,2.5,2.5,0,0,1,.53,1.74v6.17ZM87.1,287.07a2.08,2.08,0,0,1,1.56-.55,1.9,1.9,0,0,1,2.14,2.15,1.84,1.84,0,0,1-2.11,2.05,2.29,2.29,0,0,1-1.58-.51,2,2,0,0,1-.56-1.51,2.19,2.19,0,0,1,.55-1.63m-.79,8.36a2.31,2.31,0,0,1,1.53-.47h1.74a3.72,3.72,0,0,1,1.8.3,1.16,1.16,0,0,1,.48,1.07,1.68,1.68,0,0,1-.88,1.48,5.24,5.24,0,0,1-2.69.54,3.56,3.56,0,0,1-1.87-.4,1.29,1.29,0,0,1-.65-1.17,1.68,1.68,0,0,1,.54-1.35m3.76-9.79a5.09,5.09,0,0,0-1.35-.17,3.81,3.81,0,0,0-2.66.85,3.1,3.1,0,0,0-.94,2.41,3,3,0,0,0,.47,1.67,2.61,2.61,0,0,0,1.2,1,2.94,2.94,0,0,0-.88.75,1.58,1.58,0,0,0-.27.92,1.37,1.37,0,0,0,.24.8,1.47,1.47,0,0,0,.62.52,2.83,2.83,0,0,0-1.57.86,2.21,2.21,0,0,0-.56,1.51,2.24,2.24,0,0,0,1,2,5,5,0,0,0,2.88.7,6.84,6.84,0,0,0,3.71-.83,2.73,2.73,0,0,0,1.27-2.42,2.26,2.26,0,0,0-.83-1.89,3.77,3.77,0,0,0-2.38-.66H88.35a2.4,2.4,0,0,1-1.1-.18.63.63,0,0,1-.33-.58,1.43,1.43,0,0,1,.92-1.23,4.14,4.14,0,0,0,.81.07,3.88,3.88,0,0,0,2.62-.83,2.83,2.83,0,0,0,1-2.24,3.07,3.07,0,0,0-.63-1.91l1.77-.21v-.91Zm-10.87,0H76.77V285a3,3,0,0,1,.39-1.74,1.4,1.4,0,0,1,1.21-.54,4.78,4.78,0,0,1,1.43.27l.37-1.16a6.47,6.47,0,0,0-1.77-.31c-2.05,0-3.07,1.18-3.07,3.52v.53l-1.71.52v.65h1.71v8.42h1.44v-8.42H79.2ZM65.65,287.4a3.19,3.19,0,0,1,.61,2.1h-5a3.49,3.49,0,0,1,.81-2.08,2.38,2.38,0,0,1,1.83-.74,2.15,2.15,0,0,1,1.74.72m.3,7.81a7.92,7.92,0,0,0,1.45-.48v-1.28a7.83,7.83,0,0,1-3,.64,2.94,2.94,0,0,1-2.27-.87,3.77,3.77,0,0,1-.85-2.55h6.57v-.91a4.53,4.53,0,0,0-1-3.11,3.6,3.6,0,0,0-2.84-1.18,3.78,3.78,0,0,0-3,1.35,5.54,5.54,0,0,0-1.14,3.67A5,5,0,0,0,61,294.06a4.35,4.35,0,0,0,3.33,1.29,8.53,8.53,0,0,0,1.65-.14m-19.59-2a4.76,4.76,0,0,1-.67-2.76,4.92,4.92,0,0,1,.68-2.79,2.22,2.22,0,0,1,1.94-1,2.55,2.55,0,0,1,2.15.86,4.79,4.79,0,0,1,.68,2.9v.3a4.05,4.05,0,0,1-.67,2.6,2.63,2.63,0,0,1-2.14.8,2.29,2.29,0,0,1-2-.93m5,2h1.17V281.64H51.14v3.88l0,.67.07.69h-.12a3.46,3.46,0,0,0-3-1.41,3.52,3.52,0,0,0-2.91,1.3,5.71,5.71,0,0,0-1,3.67,5.57,5.57,0,0,0,1,3.63,3.54,3.54,0,0,0,2.91,1.28,3.4,3.4,0,0,0,3-1.45h.08Zm-13.57-.33v-1.27a6.48,6.48,0,0,1-2.45.51,2.45,2.45,0,0,1-2.1-.94,4.45,4.45,0,0,1-.71-2.7q0-3.7,2.91-3.7a4.91,4.91,0,0,1,1,.12,7.07,7.07,0,0,1,1,.32L38,286a4.45,4.45,0,0,0-1.08-.34,6.48,6.48,0,0,0-1.38-.15,4.14,4.14,0,0,0-3.28,1.3,5.41,5.41,0,0,0-1.15,3.7,5.24,5.24,0,0,0,1.13,3.61,4.08,4.08,0,0,0,3.21,1.27,5.09,5.09,0,0,0,2.41-.5m-15.52-7.24a4.82,4.82,0,0,1,.65,2.77,5,5,0,0,1-.65,2.79,2.23,2.23,0,0,1-2,1,2.58,2.58,0,0,1-2.15-.86,4.84,4.84,0,0,1-.67-2.88,4.76,4.76,0,0,1,.66-2.86,2.52,2.52,0,0,1,2.13-.85,2.32,2.32,0,0,1,2,.92m-4.81-.7h-.07c0-.58.07-1.24.07-2v-3.29H16.07v13.54h1l.31-1.23h.1a3.17,3.17,0,0,0,1.3,1.06,4.1,4.1,0,0,0,1.7.34,3.52,3.52,0,0,0,2.91-1.3,6.92,6.92,0,0,0,0-7.28,3.54,3.54,0,0,0-2.92-1.28,3.44,3.44,0,0,0-3,1.42m-14.7,6.84a1.47,1.47,0,0,1-.48-1.19,1.64,1.64,0,0,1,.76-1.48,5.36,5.36,0,0,1,2.49-.53L7,290.49v.86a2.74,2.74,0,0,1-.77,2.07,2.94,2.94,0,0,1-2.12.74,2,2,0,0,1-1.32-.41m5.66,1.43v-6.51a3.17,3.17,0,0,0-.83-2.43,3.63,3.63,0,0,0-2.52-.75,6.92,6.92,0,0,0-1.69.21,7.26,7.26,0,0,0-1.54.6l.44,1.11a6.27,6.27,0,0,1,2.7-.73,2,2,0,0,1,1.54.53,2.44,2.44,0,0,1,.49,1.66v.59l-1.62.05q-4.62.15-4.62,3a2.69,2.69,0,0,0,.8,2.08,3.19,3.19,0,0,0,2.23.73A4.24,4.24,0,0,0,5.62,295,4,4,0,0,0,7,293.82h.07l.29,1.36Z"/><path class="cls-1" d="M406.34,267.11h-6.95l6.75-10.22v-1.16H397.8v1.33h6.54l-6.75,10.23v1.16h8.75Zm-22.45-11.38h-1.62l4.24,7.86v4.86H388v-4.93l4.24-7.79h-1.6l-3.39,6.36Zm-10.56,6,3.94-6H375.7l-3.19,5-3.16-5h-1.63l3.94,6.07-4.23,6.65H369l3.48-5.59,3.41,5.59h1.68Zm-10.84-6h-1.57l-2,7.84a25.62,25.62,0,0,0-.63,3,23.42,23.42,0,0,0-.7-3.05l-2.39-7.8h-1.57l-2.28,7.74a20.28,20.28,0,0,0-.69,3.11,29.48,29.48,0,0,0-.61-3l-2-7.86h-1.57l3.38,12.72h1.47L353.8,260a18.26,18.26,0,0,0,.61-2.52,10.21,10.21,0,0,0,.24,1c.15.57.29,1.05.41,1.42l2.56,8.52h1.47Zm-25.38,8.18a22.41,22.41,0,0,0-.82,2.81,21.62,21.62,0,0,0-.8-2.76l-2.92-8.23H331l4.56,12.72H337l4.59-12.72H340Zm-13.83-8.18V264a3.3,3.3,0,0,1-.87,2.46,3.4,3.4,0,0,1-2.48.86,3.54,3.54,0,0,1-2.56-.85,3.29,3.29,0,0,1-.87-2.45v-8.3H315v8.2a4.62,4.62,0,0,0,1.26,3.44,4.78,4.78,0,0,0,3.55,1.25,5,5,0,0,0,3.61-1.24,4.47,4.47,0,0,0,1.32-3.42v-8.23ZM304.58,257h4v-1.31h-9.54V257h4v11.41h1.48Zm-11.9,5.9a7.13,7.13,0,0,0-2.75-1.53,9.49,9.49,0,0,1-1.77-.78,2.19,2.19,0,0,1-.82-.77,2.06,2.06,0,0,1-.25-1.08,1.65,1.65,0,0,1,.66-1.4,3,3,0,0,1,1.84-.51,7.89,7.89,0,0,1,3.06.66l.46-1.29a8.65,8.65,0,0,0-3.48-.69,4.6,4.6,0,0,0-2.93.87,2.84,2.84,0,0,0-1.1,2.34,3.31,3.31,0,0,0,.76,2.27,6,6,0,0,0,2.53,1.5,14.62,14.62,0,0,1,1.9.81,2.45,2.45,0,0,1,.88.78,2,2,0,0,1,.27,1.08,1.86,1.86,0,0,1-.75,1.57,3.72,3.72,0,0,1-2.23.56,9.46,9.46,0,0,1-1.82-.19,10.09,10.09,0,0,1-1.71-.52V268a8.25,8.25,0,0,0,3.48.58,5.27,5.27,0,0,0,3.31-.94,3.1,3.1,0,0,0,1.22-2.61,3.05,3.05,0,0,0-.76-2.13M272.09,257H274a4.07,4.07,0,0,1,2.39.55,2.15,2.15,0,0,1,.74,1.82,2.35,2.35,0,0,1-.73,1.87,3.53,3.53,0,0,1-2.3.62h-2Zm2.66,6.13,3.08,5.29h1.75l-3.46-5.72a3.37,3.37,0,0,0,2.56-3.41,3.21,3.21,0,0,0-1.12-2.69,5.47,5.47,0,0,0-3.46-.9h-3.48v12.72h1.47v-5.29Zm-20.63-5a4.49,4.49,0,0,1,6.39,0,6,6,0,0,1,1.07,3.89,6.14,6.14,0,0,1-1.07,3.93,4.49,4.49,0,0,1-6.39,0,6,6,0,0,1-1.1-3.92,5.92,5.92,0,0,1,1.1-3.88m7.49-.92a5.42,5.42,0,0,0-4.28-1.74,5.53,5.53,0,0,0-4.35,1.71,7,7,0,0,0-1.53,4.82,7.07,7.07,0,0,0,1.53,4.85,5.49,5.49,0,0,0,4.33,1.71h.48l2.48,2.87h2.15l-3-3.15a4.89,4.89,0,0,0,2.78-2.19,7.79,7.79,0,0,0,1-4.07,7,7,0,0,0-1.54-4.8M238.23,257h1.66a4.32,4.32,0,0,1,2.57.62,2.2,2.2,0,0,1,.83,1.88,2.32,2.32,0,0,1-.88,2,4.9,4.9,0,0,1-2.85.64h-1.33Zm1.82-1.28h-3.3v12.72h1.48v-5h1.5a6,6,0,0,0,3.77-1,3.55,3.55,0,0,0,1.32-3q0-3.7-4.77-3.71m-19.8,2.46a4,4,0,0,1,3.22-1.34,3.88,3.88,0,0,1,3.18,1.33,6,6,0,0,1,1.07,3.89,6.2,6.2,0,0,1-1.07,3.93,4.5,4.5,0,0,1-6.4,0,6,6,0,0,1-1.1-3.92,6,6,0,0,1,1.1-3.88m7.5-.92a5.42,5.42,0,0,0-4.28-1.74,5.53,5.53,0,0,0-4.35,1.71,7,7,0,0,0-1.53,4.82,7.07,7.07,0,0,0,1.53,4.85,6.26,6.26,0,0,0,8.63,0,7.07,7.07,0,0,0,1.54-4.81,7,7,0,0,0-1.54-4.8m-17.63-1.54h-1.38V263c0,.37,0,1,0,1.82s.07,1.36.08,1.51h-.07l-6.93-10.63h-1.67v12.72h1.36v-7.23c0-1,0-2.19-.13-3.44h.07l6.95,10.67h1.68Zm-23.83,12.72,4.35-11.26h.07c-.08,1.1-.12,2.13-.12,3.06v8.2h1.48V255.73h-2.21l-4.06,10.49h-.07l-4-10.49h-2.23v12.72h1.37v-8.09c0-1.23,0-2.29-.12-3.19h.07l4.31,11.28Zm-13.6,0v-1.34h-5.61V255.73H165.6v12.72Zm-18.78-7.19,5.12-5.53h-1.75L151.51,262v-6.31H150v12.72h1.48v-5l1.33-1.19,4.64,6.17h1.74Zm-12.72,9.63a3.64,3.64,0,0,0,.84-2.56v-12.6h-1.48v12.72a2.25,2.25,0,0,1-.45,1.51,1.65,1.65,0,0,1-1.31.52,4.55,4.55,0,0,1-1.28-.18v1.27a3,3,0,0,0,1.28.23,3.06,3.06,0,0,0,2.4-.91m-8.66-15.16h-1.48v12.72h1.48Zm-9.6,0h-1.48v5.41h-6.7v-5.41h-1.48v12.72h1.48v-6h6.7v6h1.48Zm-21.66,7.38h2.84V267a10.59,10.59,0,0,1-2.58.31A4.85,4.85,0,0,1,97.84,266a5.49,5.49,0,0,1-1.26-3.91,5.38,5.38,0,0,1,1.3-3.84,4.76,4.76,0,0,1,3.63-1.38,8.46,8.46,0,0,1,3.32.73l.57-1.3a9.53,9.53,0,0,0-3.79-.75,7.39,7.39,0,0,0-3.51.79,5.31,5.31,0,0,0-2.29,2.28,7.26,7.26,0,0,0-.8,3.47,6.81,6.81,0,0,0,1.61,4.82,5.9,5.9,0,0,0,4.5,1.71,15.73,15.73,0,0,0,2.42-.16,13,13,0,0,0,2-.49v-6.18h-4.32ZM83.33,263H88.6V261.7H83.33V257h5.61v-1.31H81.85v12.72h1.48Zm-8.93,4.12H68.79v-4.68h5.27v-1.31H68.79V257H74.4v-1.31H67.31v12.72H74.4ZM57,265.87a5.47,5.47,0,0,1-4,1.3h-1.8V257h2.15A5,5,0,0,1,57,258.27,5.09,5.09,0,0,1,58.28,262,5.14,5.14,0,0,1,57,265.87m1.25-8.49a6.21,6.21,0,0,0-4.61-1.65H49.7v12.72h3.52a6.73,6.73,0,0,0,4.92-1.67A6.41,6.41,0,0,0,59.85,262a6.17,6.17,0,0,0-1.65-4.59m-16,.17.63-1.27a7.87,7.87,0,0,0-3.5-.73,6.39,6.39,0,0,0-3.27.8,5.26,5.26,0,0,0-2.12,2.28,7.61,7.61,0,0,0-.74,3.44,7,7,0,0,0,1.53,4.85,5.52,5.52,0,0,0,4.34,1.7,9.37,9.37,0,0,0,3.26-.49v-1.3a11.38,11.38,0,0,1-3,.48A4.15,4.15,0,0,1,35.92,266a5.74,5.74,0,0,1-1.17-3.86A5.61,5.61,0,0,1,36,258.27a4.16,4.16,0,0,1,3.31-1.4,6.75,6.75,0,0,1,2.89.68m-20.5,4.88a4.27,4.27,0,0,1,2.43.56,2,2,0,0,1,.79,1.74,2.19,2.19,0,0,1-.78,1.86,3.75,3.75,0,0,1-2.31.6H19.13v-4.76ZM19.13,257h2.18a4.84,4.84,0,0,1,2.43.47,1.7,1.7,0,0,1,.77,1.55,1.9,1.9,0,0,1-.69,1.66,4,4,0,0,1-2.25.49H19.13Zm-1.48,11.44h4.44a4.89,4.89,0,0,0,3.22-1,3.25,3.25,0,0,0,1.16-2.66c0-1.7-1-2.71-2.9-3v-.09a3,3,0,0,0,1.84-.95,2.77,2.77,0,0,0,.63-1.87,2.67,2.67,0,0,0-1.13-2.39,6.75,6.75,0,0,0-3.66-.76h-3.6ZM3.58,263.07l1.5-3.94a16.48,16.48,0,0,0,.55-1.83c.2.72.4,1.33.59,1.83l1.48,3.94Zm7.7,5.38-5-12.77H5L0,268.45H1.5l1.56-4.05h5.1l1.58,4.05Z"/><path class="cls-1" d="M60.36,232.52A4.26,4.26,0,0,0,59.08,234H59l-.16-1.76H57.66v9.53H59.1v-5.11a3.39,3.39,0,0,1,.82-2.34,2.54,2.54,0,0,1,2-.94,4.83,4.83,0,0,1,1.05.13l.19-1.34A5.48,5.48,0,0,0,62,232a2.87,2.87,0,0,0-1.65.51M49,240.3a1.48,1.48,0,0,1-.47-1.19,1.62,1.62,0,0,1,.76-1.48,5.19,5.19,0,0,1,2.48-.53l1.45-.07v.87a2.77,2.77,0,0,1-.77,2.07,3,3,0,0,1-2.12.74A2,2,0,0,1,49,240.3m5.66,1.42v-6.5a3.14,3.14,0,0,0-.82-2.43,3.61,3.61,0,0,0-2.53-.76,7,7,0,0,0-3.23.82l.45,1.1a6.37,6.37,0,0,1,2.69-.73,2,2,0,0,1,1.55.54,2.44,2.44,0,0,1,.48,1.66V236l-1.62.05q-4.62.13-4.62,3a2.66,2.66,0,0,0,.81,2.08,3.19,3.19,0,0,0,2.22.73,4.34,4.34,0,0,0,1.77-.32,4,4,0,0,0,1.42-1.21h.07l.29,1.35Zm-10-13.53H43.24v13.53h1.44Zm-12.48,4v6.24a3.5,3.5,0,0,0,.87,2.64,3.62,3.62,0,0,0,2.6.83,4.17,4.17,0,0,0,1.8-.38,2.87,2.87,0,0,0,1.23-1.08h.08l.21,1.28h1.19v-9.53H38.73v5a4.11,4.11,0,0,1-.69,2.67,2.7,2.7,0,0,1-2.19.82,2.18,2.18,0,0,1-1.66-.57,2.54,2.54,0,0,1-.53-1.75v-6.18Zm-8.13,1.43a2.12,2.12,0,0,1,1.57-.55,1.89,1.89,0,0,1,2.14,2.15,1.84,1.84,0,0,1-2.11,2.05,2.27,2.27,0,0,1-1.58-.51,2,2,0,0,1-.56-1.52,2.2,2.2,0,0,1,.54-1.62M23.29,242a2.26,2.26,0,0,1,1.53-.47h1.73a3.69,3.69,0,0,1,1.8.3,1.15,1.15,0,0,1,.48,1.07,1.68,1.68,0,0,1-.87,1.48,5.24,5.24,0,0,1-2.69.54,3.6,3.6,0,0,1-1.88-.4,1.3,1.3,0,0,1-.65-1.17,1.69,1.69,0,0,1,.55-1.35m3.76-9.79A4.69,4.69,0,0,0,25.7,232a3.86,3.86,0,0,0-2.66.85,3.45,3.45,0,0,0-.48,4.09,2.56,2.56,0,0,0,1.21,1,3.11,3.11,0,0,0-.88.76,1.51,1.51,0,0,0-.28.91,1.32,1.32,0,0,0,.25.81,1.68,1.68,0,0,0,.61.52,2.78,2.78,0,0,0-1.56.86,2.2,2.2,0,0,0-.56,1.5,2.27,2.27,0,0,0,1,2,5.12,5.12,0,0,0,2.89.69,6.72,6.72,0,0,0,3.7-.83,2.69,2.69,0,0,0,1.28-2.41,2.27,2.27,0,0,0-.84-1.9,3.79,3.79,0,0,0-2.38-.65H25.33a2.3,2.3,0,0,1-1.11-.19.62.62,0,0,1-.32-.58,1.42,1.42,0,0,1,.92-1.22,5.07,5.07,0,0,0,.8.07,3.85,3.85,0,0,0,2.63-.84,2.8,2.8,0,0,0,1-2.23,2.93,2.93,0,0,0-.2-1.11,2.84,2.84,0,0,0-.43-.8l1.77-.21v-.91ZM17.92,234a3.14,3.14,0,0,1,.61,2.09h-5a3.48,3.48,0,0,1,.8-2.07,2.37,2.37,0,0,1,1.83-.75,2.14,2.14,0,0,1,1.74.73m.3,7.8a7.16,7.16,0,0,0,1.45-.47V240a7.66,7.66,0,0,1-3,.65,2.94,2.94,0,0,1-2.27-.87,3.77,3.77,0,0,1-.85-2.55h6.57v-.92a4.57,4.57,0,0,0-1-3.11A3.64,3.64,0,0,0,16.2,232a3.79,3.79,0,0,0-3,1.36A5.52,5.52,0,0,0,12,237a5,5,0,0,0,1.22,3.58,4.35,4.35,0,0,0,3.33,1.29,7.74,7.74,0,0,0,1.65-.15m-15-11.45H5.15a4,4,0,0,1,2.39.56,2.13,2.13,0,0,1,.74,1.82,2.3,2.3,0,0,1-.73,1.86,3.44,3.44,0,0,1-2.29.62h-2Zm2.65,6.13L9,241.72h1.75L7.26,236a3.38,3.38,0,0,0,2.55-3.41,3.27,3.27,0,0,0-1.11-2.7,5.49,5.49,0,0,0-3.46-.9H1.75v12.72H3.23v-5.29Z"/><path class="cls-1" d="M185.07,197.82A5.13,5.13,0,0,0,183.5,196a15.4,15.4,0,0,0-3.34-1.72,20.78,20.78,0,0,1-3.31-1.55,1.49,1.49,0,0,1-.76-1.24c0-.84.78-1.27,2.35-1.27a8.8,8.8,0,0,1,2.59.4,28.93,28.93,0,0,1,2.73,1l1.6-3.83a16.14,16.14,0,0,0-6.83-1.53,9.76,9.76,0,0,0-5.7,1.42,4.61,4.61,0,0,0-2,4,6,6,0,0,0,.48,2.55,4.7,4.7,0,0,0,1.53,1.83,15.18,15.18,0,0,0,3.29,1.74c1,.44,1.88.83,2.51,1.16a5.35,5.35,0,0,1,1.32.89,1.38,1.38,0,0,1,.39,1c0,1.11-1,1.67-2.89,1.67a13.74,13.74,0,0,1-3.27-.47,19.63,19.63,0,0,1-3.33-1.17v4.39a13.8,13.8,0,0,0,2.8.84,19.7,19.7,0,0,0,3.62.29c2.76,0,4.84-.53,6.22-1.57a5.34,5.34,0,0,0,2.08-4.56,5.79,5.79,0,0,0-.5-2.49m-18.53-4.42a7.36,7.36,0,0,0-1.76-5.29,6.78,6.78,0,0,0-5.15-1.84,8.35,8.35,0,0,0-3.54.72,5.64,5.64,0,0,0-2.45,2.13h-.29l-.72-2.49h-4v19.46h5.31v-9.15a9.28,9.28,0,0,1,1-4.94,3.58,3.58,0,0,1,3.22-1.48,2.72,2.72,0,0,1,2.38,1,5.44,5.44,0,0,1,.75,3.16v11.36h5.31Zm-28.7,5.28a3.68,3.68,0,0,1-1.1,2.81,4.08,4.08,0,0,1-3,1.07q-2.58,0-2.58-2.25a2.62,2.62,0,0,1,1.14-2.33,6.59,6.59,0,0,1,3.44-.84l2.05-.06Zm5.28,7.41v-13a6.32,6.32,0,0,0-2.09-5.18,9.26,9.26,0,0,0-6-1.7,15.82,15.82,0,0,0-7.44,1.75l1.75,3.59a13.81,13.81,0,0,1,5.49-1.41c2,0,3,1,3,3V194l-3.37.1q-4.36.16-6.54,1.63a5.14,5.14,0,0,0-2.16,4.57,6.13,6.13,0,0,0,1.61,4.56,6,6,0,0,0,4.41,1.6,8.85,8.85,0,0,0,3.7-.66,7.74,7.74,0,0,0,2.75-2.34h.14l1,2.65Zm-21.58-11.27a13.65,13.65,0,0,0-4.89-3.42,32.91,32.91,0,0,1-3.42-1.78,3.56,3.56,0,0,1-1-1,2.3,2.3,0,0,1-.33-1.24,2.32,2.32,0,0,1,.82-1.86,3.42,3.42,0,0,1,2.35-.72,10.79,10.79,0,0,1,2.61.33,26.58,26.58,0,0,1,3.37,1.17l1.74-4.19a26.75,26.75,0,0,0-3.77-1.33,15.06,15.06,0,0,0-3.78-.47,9.52,9.52,0,0,0-6.33,1.94,6.56,6.56,0,0,0-2.28,5.3,6.72,6.72,0,0,0,.69,3.13,8,8,0,0,0,1.86,2.35,15.52,15.52,0,0,0,3.5,2.11,31.93,31.93,0,0,1,3.3,1.72,4.86,4.86,0,0,1,1.23,1.12,2.52,2.52,0,0,1-.54,3.35,4.55,4.55,0,0,1-2.72.68,12.62,12.62,0,0,1-3.26-.47,29,29,0,0,1-4.36-1.62v5a16.22,16.22,0,0,0,7.2,1.53,10.72,10.72,0,0,0,6.9-2,6.55,6.55,0,0,0,2.48-5.43,6.71,6.71,0,0,0-1.32-4.2M92.71,193.4A7.36,7.36,0,0,0,91,188.11a6.78,6.78,0,0,0-5.15-1.84,8.35,8.35,0,0,0-3.54.72,5.56,5.56,0,0,0-2.44,2.13h-.3l-.71-2.49H74.75v19.46h5.31v-9.15a9.28,9.28,0,0,1,1-4.94,3.58,3.58,0,0,1,3.22-1.48,2.72,2.72,0,0,1,2.38,1,5.44,5.44,0,0,1,.75,3.16v11.36h5.31ZM66.36,206.1a12.37,12.37,0,0,0,3-1V201a16.75,16.75,0,0,1-3.27,1.16,14.81,14.81,0,0,1-3.32.37,4.76,4.76,0,0,1-3.52-1.27,5.16,5.16,0,0,1-1.34-3.54H70.44v-2.57a8.88,8.88,0,0,0-2.3-6.49,8.55,8.55,0,0,0-6.42-2.35A8.7,8.7,0,0,0,55,188.94q-2.45,2.67-2.45,7.56c0,3.17.89,5.62,2.65,7.34a10,10,0,0,0,7.34,2.6,19.13,19.13,0,0,0,3.86-.34m-1.93-15a4.39,4.39,0,0,1,1,3H58a5,5,0,0,1,1.1-3,3.34,3.34,0,0,1,2.64-1.07,3.45,3.45,0,0,1,2.68,1.07M43,192a8.36,8.36,0,0,1,.88,4.31q0,5.88-3.57,5.88a3.29,3.29,0,0,1-2.94-1.36,8.09,8.09,0,0,1-.94-4.49v-.57a7,7,0,0,1,.94-4,3.37,3.37,0,0,1,2.87-1.2A3,3,0,0,1,43,192m2.78,13.29a7.64,7.64,0,0,0,2.6-3.5,14.6,14.6,0,0,0,.91-5.41,12.32,12.32,0,0,0-2-7.4A6.31,6.31,0,0,0,42,186.27a6.13,6.13,0,0,0-5.52,2.89h-.24l-.75-2.53H31.15v28h5.3v-7.88q0-.39-.27-2.82h.27a6.45,6.45,0,0,0,5.38,2.49,6.69,6.69,0,0,0,4-1.2M9.36,186.9a5.71,5.71,0,0,1,4.86-2.16q6.42,0,6.42,8.59t-6.46,8.58a5.67,5.67,0,0,1-4.84-2.16q-1.61-2.15-1.61-6.42t1.63-6.43m13.83-3.27c-2.08-2.26-5.06-3.38-9-3.38s-6.91,1.12-9,3.35-3.14,5.47-3.14,9.7,1,7.48,3.13,9.74,5.08,3.4,9,3.4,6.89-1.13,9-3.4,3.13-5.49,3.13-9.71-1-7.45-3.1-9.7"/></svg>